<?xml version="1.0" ?><svg style="enable-background:new 0 0 64 64;" version="1.1" viewBox="0 0 64 64" xml:space="preserve" xmlns="http://www.w3.org/2000/svg" xmlns:xlink="http://www.w3.org/1999/xlink"><style type="text/css">
	.st0{fill:#0072FF;}
</style><g id="GUIDES_64"/><g id="Layer_3"/><g id="Layer_2"><path class="st0" d="M20.7,56h22.7c7,0,12.7-5.8,12.7-12.9V20.9C56,13.8,50.3,8,43.3,8H20.7C13.7,8,8,13.8,8,20.9v22.2   C8,50.2,13.7,56,20.7,56z M46,16c1.6,0,2.9,1.3,2.9,3c0,1.7-1.3,3-2.9,3s-2.9-1.3-2.9-3C43.1,17.3,44.4,16,46,16z M32,20   c6.5,0,11.7,5.4,11.7,12S38.5,44,32,44s-11.7-5.4-11.7-12S25.5,20,32,20z"/></g></svg>