<svg width="665" height="247" viewBox="0 0 665 247" fill="none" xmlns="http://www.w3.org/2000/svg">
<g filter="url(#filter0_d_2430_1329)">
<path d="M58.5921 192.707C49.3102 192.707 40.8662 190.773 33.2602 186.906C25.7831 183.039 19.853 177.431 15.4699 170.083C11.0867 162.734 8.89517 153.839 8.89517 143.397V140.69C8.89517 130.248 11.0867 121.352 15.4699 114.004C19.853 106.656 25.7831 101.048 33.2602 97.1808C40.8662 93.3134 49.3102 91.3796 58.5921 91.3796C67.7451 91.3796 75.6089 92.9911 82.1836 96.214C88.7583 99.4369 94.0439 103.884 98.0402 109.557C102.166 115.1 104.873 121.417 106.162 128.507L82.5704 133.535C82.0547 129.668 80.8945 126.187 79.0897 123.093C77.2848 119.999 74.7065 117.549 71.3547 115.745C68.1318 113.94 64.071 113.037 59.1722 113.037C54.2734 113.037 49.8258 114.133 45.8295 116.325C41.962 118.387 38.868 121.546 36.5475 125.8C34.356 129.925 33.2602 135.018 33.2602 141.077V143.01C33.2602 149.069 34.356 154.226 36.5475 158.48C38.868 162.605 41.962 165.764 45.8295 167.955C49.8258 170.018 54.2734 171.049 59.1722 171.049C66.5204 171.049 72.0638 169.18 75.8023 165.442C79.6698 161.574 82.1192 156.546 83.1505 150.358L106.742 155.966C105.066 162.799 102.166 169.051 98.0402 174.724C94.0439 180.267 88.7583 184.65 82.1836 187.873C75.6089 191.096 67.7451 192.707 58.5921 192.707ZM172.477 192.707C162.937 192.707 154.364 190.773 146.758 186.906C139.152 183.039 133.158 177.431 128.775 170.083C124.391 162.734 122.2 153.904 122.2 143.59V140.496C122.2 130.183 124.391 121.352 128.775 114.004C133.158 106.656 139.152 101.048 146.758 97.1808C154.364 93.3134 162.937 91.3796 172.477 91.3796C182.017 91.3796 190.589 93.3134 198.196 97.1808C205.802 101.048 211.796 106.656 216.179 114.004C220.562 121.352 222.754 130.183 222.754 140.496V143.59C222.754 153.904 220.562 162.734 216.179 170.083C211.796 177.431 205.802 183.039 198.196 186.906C190.589 190.773 182.017 192.707 172.477 192.707ZM172.477 171.049C179.954 171.049 186.142 168.664 191.041 163.895C195.939 158.996 198.389 152.034 198.389 143.01V141.077C198.389 132.052 195.939 125.155 191.041 120.386C186.271 115.487 180.083 113.037 172.477 113.037C165 113.037 158.812 115.487 153.913 120.386C149.014 125.155 146.565 132.052 146.565 141.077V143.01C146.565 152.034 149.014 158.996 153.913 163.895C158.812 168.664 165 171.049 172.477 171.049ZM320.93 190V114.198H301.593V94.0869H320.93V76.2965C320.93 69.7218 322.864 64.5007 326.731 60.6333C330.728 56.6369 335.884 54.6387 342.201 54.6387H365.406V74.7495H350.71C347.1 74.7495 345.295 76.6833 345.295 80.5507V94.0869H383.97V114.198H345.295V190H320.93ZM257.89 190V114.198H233.525V94.0869H257.89V76.2965C257.89 69.7218 259.824 64.5007 263.692 60.6333C267.688 56.6369 272.845 54.6387 279.161 54.6387H304.3V74.7495H287.67C284.06 74.7495 282.255 76.6833 282.255 80.5507V94.0869H301.593V114.198H282.255V190H257.89ZM383.97 190V94.0869H408.335V190H383.97ZM396.152 83.6447C391.769 83.6447 388.031 82.2266 384.937 79.3905C381.972 76.5543 380.489 72.8158 380.489 68.1748C380.489 63.5339 381.972 59.7953 384.937 56.9592C388.031 54.123 391.769 52.705 396.152 52.705C400.664 52.705 404.403 54.123 407.368 56.9592C410.333 59.7953 411.816 63.5339 411.816 68.1748C411.816 72.8158 410.333 76.5543 407.368 79.3905C404.403 82.2266 400.664 83.6447 396.152 83.6447ZM435.407 190V94.0869H459.385V106.656H462.866C464.413 103.304 467.314 100.146 471.568 97.1808C475.822 94.0869 482.268 92.5399 490.905 92.5399C498.382 92.5399 504.893 94.2802 510.436 97.7609C516.108 101.113 520.491 105.818 523.585 111.877C526.679 117.807 528.226 124.769 528.226 132.762V190H503.861V134.695C503.861 127.476 502.056 122.062 498.447 118.452C494.966 114.842 489.938 113.037 483.364 113.037C475.887 113.037 470.085 115.551 465.96 120.579C461.835 125.478 459.772 132.375 459.772 141.27V190H435.407ZM549.925 142.43V139.336C549.925 129.281 551.923 120.708 555.919 113.618C559.916 106.398 565.201 100.919 571.776 97.1808C578.48 93.3134 585.763 91.3796 593.627 91.3796C602.393 91.3796 609.033 92.9266 613.545 96.0206C618.057 99.1146 621.344 102.337 623.407 105.689H626.887V94.0869H650.866V207.017C650.866 213.592 648.932 218.813 645.064 222.68C641.197 226.676 636.04 228.675 629.595 228.675H565.395V207.404H621.086C624.696 207.404 626.501 205.47 626.501 201.602V176.657H623.02C621.731 178.72 619.926 180.847 617.605 183.039C615.285 185.101 612.191 186.842 608.324 188.26C604.456 189.678 599.557 190.387 593.627 190.387C585.763 190.387 578.48 188.517 571.776 184.779C565.201 180.911 559.916 175.433 555.919 168.342C551.923 161.123 549.925 152.486 549.925 142.43ZM600.589 169.116C608.066 169.116 614.318 166.731 619.346 161.961C624.374 157.191 626.887 150.487 626.887 141.85V139.916C626.887 131.15 624.374 124.446 619.346 119.806C614.447 115.036 608.195 112.651 600.589 112.651C593.112 112.651 586.859 115.036 581.831 119.806C576.804 124.446 574.29 131.15 574.29 139.916V141.85C574.29 150.487 576.804 157.191 581.831 161.961C586.859 166.731 593.112 169.116 600.589 169.116Z" fill="white"/>
<path d="M33.2602 186.906L22.2341 208.223L22.308 208.262L22.3823 208.299L33.2602 186.906ZM15.4699 114.004L36.0815 126.299L36.0815 126.299L15.4699 114.004ZM33.2602 97.1808L22.3823 75.7876L22.308 75.8253L22.2341 75.8636L33.2602 97.1808ZM82.1836 96.214L71.6199 117.764L71.6199 117.764L82.1836 96.214ZM98.0402 109.557L78.4207 123.38L78.6004 123.635L78.7867 123.885L98.0402 109.557ZM106.162 128.507L111.164 151.98L133.941 147.126L129.775 124.214L106.162 128.507ZM82.5704 133.535L58.7809 136.707L62.2085 162.413L87.5728 157.008L82.5704 133.535ZM71.3547 115.745L59.6282 136.685L59.8015 136.782L59.9763 136.876L71.3547 115.745ZM45.8295 116.325L57.1236 137.501L57.2469 137.435L57.3695 137.368L45.8295 116.325ZM36.5475 125.8L15.4781 114.308L15.4148 114.424L15.3528 114.54L36.5475 125.8ZM36.5475 158.48L15.2122 169.471L15.4138 169.863L15.6297 170.246L36.5475 158.48ZM45.8295 167.955L33.9972 188.836L34.4052 189.067L34.822 189.282L45.8295 167.955ZM75.8023 165.442L92.7729 182.412L92.7729 182.412L75.8023 165.442ZM83.1505 150.358L88.7008 127.009L63.7014 121.067L59.477 146.413L83.1505 150.358ZM106.742 155.966L130.051 161.684L135.81 138.207L112.292 132.617L106.742 155.966ZM98.0402 174.724L78.6306 160.607L78.6012 160.648L78.572 160.688L98.0402 174.724ZM58.5921 168.707C52.7523 168.707 48.0848 167.52 44.1381 165.513L22.3823 208.299C33.6477 214.027 45.868 216.707 58.5921 216.707V168.707ZM44.2864 165.589C40.8512 163.812 38.2126 161.36 36.0815 157.788L-5.14181 182.377C1.49342 193.501 10.715 202.265 22.2341 208.223L44.2864 165.589ZM36.0815 157.788C34.3579 154.898 32.8952 150.463 32.8952 143.397H-15.1048C-15.1048 157.215 -12.1844 170.57 -5.14181 182.377L36.0815 157.788ZM32.8952 143.397V140.69H-15.1048V143.397H32.8952ZM32.8952 140.69C32.8952 133.624 34.3579 129.189 36.0815 126.299L-5.1418 101.71C-12.1844 113.516 -15.1048 126.872 -15.1048 140.69H32.8952ZM36.0815 126.299C38.2126 122.726 40.8512 120.275 44.2864 118.498L22.2341 75.8636C10.715 81.8217 1.49342 90.5859 -5.14181 101.71L36.0815 126.299ZM44.1381 118.574C48.0848 116.567 52.7523 115.38 58.5921 115.38V67.3796C45.868 67.3796 33.6477 70.0594 22.3823 75.7876L44.1381 118.574ZM58.5921 115.38C64.9764 115.38 69.0511 116.505 71.6199 117.764L92.7474 74.6639C82.1668 69.4773 70.5138 67.3796 58.5921 67.3796V115.38ZM71.6199 117.764C74.7818 119.314 76.8752 121.186 78.4207 123.38L117.66 95.7338C111.213 86.5828 102.735 79.5597 92.7474 74.6639L71.6199 117.764ZM78.7867 123.885C80.6101 126.335 81.8918 129.185 82.549 132.801L129.775 124.214C127.854 113.648 123.721 103.865 117.294 95.2285L78.7867 123.885ZM101.16 105.034L77.568 110.062L87.5728 157.008L111.164 151.98L101.16 105.034ZM106.36 130.363C105.462 123.632 103.363 117.072 99.8204 111L58.359 135.186C58.4264 135.301 58.6471 135.703 58.7809 136.707L106.36 130.363ZM99.8204 111C95.6481 103.847 89.7202 98.3756 82.7331 94.6134L59.9763 136.876C59.9086 136.84 59.6319 136.677 59.2723 136.335C58.9056 135.987 58.5907 135.583 58.359 135.186L99.8204 111ZM83.0812 94.8045C75.2945 90.4439 66.8832 89.0374 59.1722 89.0374V137.037C60.1705 137.037 60.6345 137.131 60.6856 137.143C60.7165 137.15 60.2961 137.059 59.6282 136.685L83.0812 94.8045ZM59.1722 89.0374C50.55 89.0374 42.0856 91.006 34.2895 95.2813L57.3695 137.368C57.5661 137.26 57.9968 137.037 59.1722 137.037V89.0374ZM34.5353 95.1483C26.103 99.6456 19.796 106.391 15.4781 114.308L57.617 137.293C57.8199 136.921 57.8925 136.893 57.753 137.035C57.6878 137.102 57.594 137.187 57.4739 137.277C57.3536 137.367 57.233 137.443 57.1236 137.501L34.5353 95.1483ZM15.3528 114.54C10.8532 123.01 9.2602 132.222 9.2602 141.077H57.2602C57.2602 137.813 57.8588 136.841 57.7423 137.06L15.3528 114.54ZM9.2602 141.077V143.01H57.2602V141.077H9.2602ZM9.2602 143.01C9.2602 151.901 10.8656 161.034 15.2122 169.471L57.8829 147.489C57.8464 147.418 57.2602 146.238 57.2602 143.01H9.2602ZM15.6297 170.246C19.9481 177.924 26.0796 184.349 33.9972 188.836L57.6618 147.075C57.6554 147.071 57.671 147.08 57.6984 147.101C57.726 147.122 57.7455 147.141 57.753 147.148C57.76 147.155 57.7394 147.136 57.6941 147.075C57.6483 147.013 57.569 146.898 57.4654 146.714L15.6297 170.246ZM34.822 189.282C42.5189 193.255 50.7926 195.049 59.1722 195.049V147.049C57.7543 147.049 57.1328 146.781 56.8369 146.629L34.822 189.282ZM59.1722 195.049C70.3604 195.049 83.0169 192.168 92.7729 182.412L58.8318 148.471C59.302 148.001 59.7935 147.628 60.2492 147.353C60.6973 147.082 61.0312 146.953 61.1721 146.906C61.4111 146.825 60.8768 147.049 59.1722 147.049V195.049ZM92.7729 182.412C100.681 174.504 105.096 164.674 106.824 154.304L59.477 146.413C59.2956 147.502 59.0629 148.056 58.9642 148.259C58.879 148.434 58.8402 148.463 58.8318 148.471L92.7729 182.412ZM77.6002 173.708L101.192 179.316L112.292 132.617L88.7008 127.009L77.6002 173.708ZM83.433 150.249C82.497 154.065 80.9175 157.463 78.6306 160.607L117.45 188.84C123.414 180.64 127.635 171.533 130.051 161.684L83.433 150.249ZM78.572 160.688C77.0451 162.806 74.9143 164.708 71.6199 166.323L92.7474 209.423C102.602 204.592 111.043 197.727 117.508 188.759L78.572 160.688ZM71.6199 166.323C69.0511 167.582 64.9764 168.707 58.5921 168.707V216.707C70.5138 216.707 82.1668 214.61 92.7474 209.423L71.6199 166.323ZM146.758 186.906L135.88 208.299L135.88 208.299L146.758 186.906ZM128.775 114.004L149.386 126.299L149.386 126.299L128.775 114.004ZM146.758 97.1808L157.636 118.574L157.636 118.574L146.758 97.1808ZM198.196 97.1808L187.318 118.574L187.318 118.574L198.196 97.1808ZM216.179 114.004L195.568 126.299L195.568 126.299L216.179 114.004ZM216.179 170.083L195.568 157.788L195.568 157.788L216.179 170.083ZM198.196 186.906L187.318 165.513L187.318 165.513L198.196 186.906ZM191.041 163.895L207.783 181.09L207.898 180.978L208.011 180.865L191.041 163.895ZM191.041 120.386L173.845 137.128L174.069 137.358L174.298 137.581L191.041 120.386ZM153.913 120.386L170.656 137.581L170.77 137.469L170.884 137.356L153.913 120.386ZM153.913 163.895L136.942 180.865L137.056 180.978L137.17 181.09L153.913 163.895ZM172.477 168.707C166.266 168.707 161.491 167.473 157.636 165.513L135.88 208.299C147.237 214.074 159.608 216.707 172.477 216.707V168.707ZM157.636 165.513C154.08 163.705 151.455 161.257 149.386 157.788L108.163 182.377C114.86 193.605 124.224 202.372 135.88 208.299L157.636 165.513ZM149.386 157.788C147.637 154.855 146.2 150.466 146.2 143.59H98.1998C98.1998 157.341 101.146 170.614 108.163 182.377L149.386 157.788ZM146.2 143.59V140.496H98.1998V143.59H146.2ZM146.2 140.496C146.2 133.621 147.637 129.232 149.386 126.299L108.163 101.71C101.146 113.473 98.1998 126.746 98.1998 140.496H146.2ZM149.386 126.299C151.455 122.83 154.08 120.382 157.636 118.574L135.88 75.7876C124.224 81.7144 114.86 90.482 108.163 101.71L149.386 126.299ZM157.636 118.574C161.491 116.614 166.266 115.38 172.477 115.38V67.3796C159.608 67.3796 147.237 70.013 135.88 75.7876L157.636 118.574ZM172.477 115.38C178.687 115.38 183.462 116.614 187.318 118.574L209.073 75.7876C197.717 70.013 185.346 67.3796 172.477 67.3796V115.38ZM187.318 118.574C190.874 120.382 193.498 122.83 195.568 126.299L236.791 101.71C230.094 90.482 220.729 81.7144 209.073 75.7876L187.318 118.574ZM195.568 126.299C197.317 129.232 198.754 133.621 198.754 140.496H246.754C246.754 126.746 243.807 113.473 236.791 101.71L195.568 126.299ZM198.754 140.496V143.59H246.754V140.496H198.754ZM198.754 143.59C198.754 150.466 197.317 154.855 195.568 157.788L236.791 182.377C243.807 170.614 246.754 157.341 246.754 143.59H198.754ZM195.568 157.788C193.498 161.257 190.874 163.705 187.318 165.513L209.073 208.299C220.729 202.372 230.094 193.605 236.791 182.377L195.568 157.788ZM187.318 165.513C183.462 167.473 178.687 168.707 172.477 168.707V216.707C185.346 216.707 197.717 214.074 209.073 208.299L187.318 165.513ZM172.477 195.049C185.567 195.049 197.964 190.651 207.783 181.09L174.298 146.699C174.233 146.763 174.186 146.802 174.158 146.825C174.13 146.847 174.114 146.857 174.111 146.859C174.108 146.861 174.109 146.861 174.112 146.859C174.114 146.858 174.11 146.861 174.095 146.866C174.083 146.871 173.638 147.049 172.477 147.049V195.049ZM208.011 180.865C218.655 170.222 222.389 156.394 222.389 143.01H174.389C174.389 145.393 174.061 146.61 173.912 147.034C173.8 147.352 173.816 147.178 174.07 146.924L208.011 180.865ZM222.389 143.01V141.077H174.389V143.01H222.389ZM222.389 141.077C222.389 127.733 218.668 113.789 207.783 103.19L174.298 137.581C173.93 137.223 173.853 136.934 173.936 137.168C174.059 137.516 174.389 138.687 174.389 141.077H222.389ZM208.236 103.643C198.419 93.5601 185.758 89.0374 172.477 89.0374V137.037C173.684 137.037 174.079 137.226 173.989 137.19C173.958 137.178 173.895 137.147 173.831 137.104C173.767 137.061 173.773 137.054 173.845 137.128L208.236 103.643ZM172.477 89.0374C159.192 89.0374 146.721 93.6361 136.942 103.415L170.884 137.356C170.956 137.284 171.008 137.239 171.039 137.213C171.071 137.187 171.087 137.177 171.088 137.176C171.089 137.175 171.084 137.179 171.074 137.184C171.064 137.189 171.058 137.191 171.061 137.19C171.064 137.189 171.085 137.181 171.127 137.169C171.169 137.157 171.24 137.139 171.345 137.12C171.553 137.083 171.919 137.037 172.477 137.037V89.0374ZM137.17 103.19C126.286 113.789 122.565 127.733 122.565 141.077H170.565C170.565 138.687 170.894 137.516 171.018 137.168C171.101 136.934 171.023 137.223 170.656 137.581L137.17 103.19ZM122.565 141.077V143.01H170.565V141.077H122.565ZM122.565 143.01C122.565 156.394 126.299 170.222 136.942 180.865L170.884 146.924C171.138 147.178 171.153 147.352 171.041 147.034C170.892 146.61 170.565 145.393 170.565 143.01H122.565ZM137.17 181.09C146.989 190.651 159.387 195.049 172.477 195.049V147.049C171.316 147.049 170.871 146.871 170.859 146.866C170.844 146.861 170.839 146.858 170.842 146.859C170.845 146.861 170.846 146.861 170.843 146.859C170.839 146.857 170.824 146.847 170.796 146.825C170.768 146.802 170.721 146.763 170.656 146.699L137.17 181.09ZM320.93 190H296.93V214H320.93V190ZM320.93 114.198H344.93V90.1977H320.93V114.198ZM301.593 114.198H277.593V138.198H301.593V114.198ZM301.593 94.0869V70.0869H277.593V94.0869H301.593ZM320.93 94.0869V118.087H344.93V94.0869H320.93ZM326.731 60.6333L343.702 77.6039L343.702 77.6038L326.731 60.6333ZM365.406 54.6387H389.406V30.6387H365.406V54.6387ZM365.406 74.7495V98.7495H389.406V74.7495H365.406ZM345.295 94.0869H321.295V118.087H345.295V94.0869ZM383.97 94.0869H407.97V70.0869H383.97V94.0869ZM383.97 114.198V138.198H407.97V114.198H383.97ZM345.295 114.198V90.1977H321.295V114.198H345.295ZM345.295 190V214H369.295V190H345.295ZM257.89 190H233.89V214H257.89V190ZM257.89 114.198H281.89V90.1977H257.89V114.198ZM233.525 114.198H209.525V138.198H233.525V114.198ZM233.525 94.0869V70.0869H209.525V94.0869H233.525ZM257.89 94.0869V118.087H281.89V94.0869H257.89ZM263.692 60.6333L280.662 77.6039L280.662 77.6038L263.692 60.6333ZM304.3 54.6387H328.3V30.6387H304.3V54.6387ZM304.3 74.7495V98.7495H328.3V74.7495H304.3ZM282.255 94.0869H258.255V118.087H282.255V94.0869ZM301.593 94.0869H325.593V70.0869H301.593V94.0869ZM301.593 114.198V138.198H325.593V114.198H301.593ZM282.255 114.198V90.1977H258.255V114.198H282.255ZM282.255 190V214H306.255V190H282.255ZM383.97 190H359.97V214H383.97V190ZM383.97 94.0869V70.0869H359.97V94.0869H383.97ZM408.335 94.0869H432.335V70.0869H408.335V94.0869ZM408.335 190V214H432.335V190H408.335ZM384.937 79.3905L368.347 96.7339L368.531 96.91L368.719 97.0822L384.937 79.3905ZM384.937 56.9592L368.719 39.2675L368.531 39.4397L368.347 39.6158L384.937 56.9592ZM344.93 190V114.198H296.93V190H344.93ZM320.93 90.1977H301.593V138.198H320.93V90.1977ZM325.593 114.198V94.0869H277.593V114.198H325.593ZM301.593 118.087H320.93V70.0869H301.593V118.087ZM344.93 94.0869V76.2965H296.93V94.0869H344.93ZM344.93 76.2965C344.93 75.351 345.069 75.2934 344.886 75.7852C344.796 76.0299 344.647 76.3498 344.423 76.7005C344.199 77.0525 343.947 77.3583 343.702 77.6039L309.761 43.6627C300.505 52.9187 296.93 64.7326 296.93 76.2965H344.93ZM343.702 77.6038C343.576 77.7301 343.373 77.9061 343.095 78.088C342.816 78.2706 342.53 78.4141 342.268 78.5159C341.716 78.7297 341.591 78.6387 342.201 78.6387V30.6387C330.338 30.6387 318.806 34.6175 309.761 43.6627L343.702 77.6038ZM342.201 78.6387H365.406V30.6387H342.201V78.6387ZM341.406 54.6387V74.7495H389.406V54.6387H341.406ZM365.406 50.7495H350.71V98.7495H365.406V50.7495ZM350.71 50.7495C344.765 50.7495 336.014 52.42 329.103 59.8242C322.484 66.9165 321.295 75.3135 321.295 80.5507H369.295C369.295 81.9205 369.009 87.4169 364.194 92.5755C359.088 98.0459 353.045 98.7495 350.71 98.7495V50.7495ZM321.295 80.5507V94.0869H369.295V80.5507H321.295ZM345.295 118.087H383.97V70.0869H345.295V118.087ZM359.97 94.0869V114.198H407.97V94.0869H359.97ZM383.97 90.1977H345.295V138.198H383.97V90.1977ZM321.295 114.198V190H369.295V114.198H321.295ZM345.295 166H320.93V214H345.295V166ZM281.89 190V114.198H233.89V190H281.89ZM257.89 90.1977H233.525V138.198H257.89V90.1977ZM257.525 114.198V94.0869H209.525V114.198H257.525ZM233.525 118.087H257.89V70.0869H233.525V118.087ZM281.89 94.0869V76.2965H233.89V94.0869H281.89ZM281.89 76.2965C281.89 75.351 282.029 75.2934 281.847 75.7852C281.756 76.0299 281.608 76.3498 281.384 76.7005C281.159 77.0525 280.908 77.3583 280.662 77.6039L246.721 43.6627C237.465 52.9187 233.89 64.7326 233.89 76.2965H281.89ZM280.662 77.6038C280.536 77.7301 280.333 77.9061 280.056 78.088C279.777 78.2706 279.491 78.4141 279.228 78.5159C278.677 78.7297 278.551 78.6387 279.161 78.6387V30.6387C267.299 30.6387 255.766 34.6175 246.721 43.6627L280.662 77.6038ZM279.161 78.6387H304.3V30.6387H279.161V78.6387ZM280.3 54.6387V74.7495H328.3V54.6387H280.3ZM304.3 50.7495H287.67V98.7495H304.3V50.7495ZM287.67 50.7495C281.725 50.7495 272.974 52.42 266.064 59.8242C259.444 66.9165 258.255 75.3135 258.255 80.5507H306.255C306.255 81.9205 305.969 87.4169 301.154 92.5755C296.049 98.0459 290.005 98.7495 287.67 98.7495V50.7495ZM258.255 80.5507V94.0869H306.255V80.5507H258.255ZM282.255 118.087H301.593V70.0869H282.255V118.087ZM277.593 94.0869V114.198H325.593V94.0869H277.593ZM301.593 90.1977H282.255V138.198H301.593V90.1977ZM258.255 114.198V190H306.255V114.198H258.255ZM282.255 166H257.89V214H282.255V166ZM407.97 190V94.0869H359.97V190H407.97ZM383.97 118.087H408.335V70.0869H383.97V118.087ZM384.335 94.0869V190H432.335V94.0869H384.335ZM408.335 166H383.97V214H408.335V166ZM396.152 59.6447C396.589 59.6447 397.473 59.724 398.573 60.1412C399.69 60.565 400.57 61.1635 401.154 61.6988L368.719 97.0822C376.451 104.169 386.057 107.645 396.152 107.645V59.6447ZM401.526 62.0471C402.488 62.9668 403.353 64.2047 403.911 65.6125C404.444 66.9578 404.489 67.9268 404.489 68.1748H356.489C356.489 78.4235 360.008 88.7575 368.347 96.7339L401.526 62.0471ZM404.489 68.1748C404.489 68.4229 404.444 69.3919 403.911 70.7372C403.353 72.145 402.487 73.3829 401.526 74.3026L368.347 39.6158C360.008 47.5921 356.489 57.9262 356.489 68.1748H404.489ZM401.154 74.6509C400.57 75.1862 399.69 75.7847 398.573 76.2085C397.473 76.6257 396.589 76.705 396.152 76.705V28.705C386.057 28.705 376.451 32.1804 368.719 39.2675L401.154 74.6509ZM396.152 76.705C395.871 76.705 395.005 76.6546 393.829 76.2085C392.612 75.7468 391.558 75.0478 390.779 74.3026L423.957 39.6158C416.063 32.0643 406.173 28.705 396.152 28.705V76.705ZM390.779 74.3026C389.817 73.3829 388.952 72.145 388.394 70.7372C387.86 69.3919 387.816 68.4229 387.816 68.1748H435.816C435.816 57.9262 432.296 47.5921 423.957 39.6158L390.779 74.3026ZM387.816 68.1748C387.816 67.9268 387.86 66.9578 388.394 65.6125C388.952 64.2047 389.817 62.9668 390.779 62.0471L423.957 96.7339C432.296 88.7575 435.816 78.4235 435.816 68.1748H387.816ZM390.779 62.0471C391.558 61.3019 392.612 60.6029 393.829 60.1412C395.005 59.695 395.871 59.6447 396.152 59.6447V107.645C406.173 107.645 416.063 104.285 423.957 96.7339L390.779 62.0471ZM435.407 190H411.407V214H435.407V190ZM435.407 94.0869V70.0869H411.407V94.0869H435.407ZM459.385 94.0869H483.385V70.0869H459.385V94.0869ZM459.385 106.656H435.385V130.656H459.385V106.656ZM462.866 106.656V130.656H478.222L484.657 116.714L462.866 106.656ZM471.568 97.1808L485.291 116.87L485.489 116.732L485.684 116.591L471.568 97.1808ZM510.436 97.7609L497.674 118.086L497.948 118.258L498.226 118.423L510.436 97.7609ZM523.585 111.877L502.211 122.792L502.259 122.886L502.307 122.979L523.585 111.877ZM528.226 190V214H552.226V190H528.226ZM503.861 190H479.861V214H503.861V190ZM498.447 118.452L481.171 135.111L481.322 135.268L481.476 135.422L498.447 118.452ZM465.96 120.579L484.318 136.038L484.417 135.921L484.514 135.803L465.96 120.579ZM459.772 190V214H483.772V190H459.772ZM459.407 190V94.0869H411.407V190H459.407ZM435.407 118.087H459.385V70.0869H435.407V118.087ZM435.385 94.0869V106.656H483.385V94.0869H435.385ZM459.385 130.656H462.866V82.6561H459.385V130.656ZM484.657 116.714C484.235 117.628 483.846 118.043 483.879 118.007C483.894 117.99 484.002 117.875 484.237 117.675C484.471 117.474 484.814 117.203 485.291 116.87L457.845 77.4913C451.438 81.9565 444.989 88.1195 441.075 96.5987L484.657 116.714ZM485.684 116.591C484.689 117.314 484.271 117.259 485.194 117.037C486.127 116.814 487.939 116.54 490.905 116.54V68.5399C480.168 68.5399 467.692 70.324 457.452 77.7712L485.684 116.591ZM490.905 116.54C494.525 116.54 496.475 117.334 497.674 118.086L523.198 77.4356C513.31 71.2265 502.239 68.5399 490.905 68.5399V116.54ZM498.226 118.423C499.849 119.382 501.115 120.646 502.211 122.792L544.96 100.963C539.868 90.9904 532.367 82.8435 522.645 77.0987L498.226 118.423ZM502.307 122.979C503.296 124.874 504.226 127.885 504.226 132.762H552.226C552.226 121.652 550.063 110.741 544.863 100.776L502.307 122.979ZM504.226 132.762V190H552.226V132.762H504.226ZM528.226 166H503.861V214H528.226V166ZM527.861 190V134.695H479.861V190H527.861ZM527.861 134.695C527.861 123.777 525.115 111.179 515.417 101.481L481.476 135.422C480.949 134.895 480.537 134.348 480.236 133.845C479.939 133.351 479.795 132.978 479.739 132.809C479.643 132.52 479.861 133.014 479.861 134.695H527.861ZM515.723 101.793C506.433 92.1589 494.336 89.0374 483.364 89.0374V137.037C484.502 137.037 484.566 137.199 483.957 136.98C483.639 136.865 483.184 136.664 482.661 136.331C482.133 135.995 481.625 135.582 481.171 135.111L515.723 101.793ZM483.364 89.0374C469.906 89.0374 456.804 93.9023 447.406 105.355L484.514 135.803C484.408 135.932 484.202 136.151 483.887 136.39C483.57 136.631 483.241 136.817 482.948 136.944C482.338 137.208 482.317 137.037 483.364 137.037V89.0374ZM447.602 105.12C438.637 115.765 435.772 128.903 435.772 141.27H483.772C483.772 135.847 485.032 135.19 484.318 136.038L447.602 105.12ZM435.772 141.27V190H483.772V141.27H435.772ZM459.772 166H435.407V214H459.772V166ZM555.919 113.618L576.827 125.402L576.872 125.322L576.917 125.241L555.919 113.618ZM571.776 97.1808L583.639 118.044L583.704 118.007L583.769 117.969L571.776 97.1808ZM613.545 96.0206L627.117 76.2271L627.117 76.2271L613.545 96.0206ZM623.407 105.689L602.967 118.268L609.996 129.689H623.407V105.689ZM626.887 105.689V129.689H650.887V105.689H626.887ZM626.887 94.0869V70.0869H602.887V94.0869H626.887ZM650.866 94.0869H674.866V70.0869H650.866V94.0869ZM645.064 222.68L628.094 205.71L627.955 205.849L627.818 205.99L645.064 222.68ZM565.395 228.675H541.395V252.675H565.395V228.675ZM565.395 207.404V183.404H541.395V207.404H565.395ZM626.501 176.657H650.501V152.657H626.501V176.657ZM623.02 176.657V152.657H609.718L602.668 163.937L623.02 176.657ZM617.605 183.039L633.55 200.976L633.821 200.736L634.084 200.487L617.605 183.039ZM608.324 188.26L616.586 210.793L608.324 188.26ZM571.776 184.779L559.608 205.465L559.845 205.605L560.086 205.74L571.776 184.779ZM555.919 168.342L534.922 179.966L534.967 180.046L535.012 180.127L555.919 168.342ZM619.346 161.961L602.828 144.55L602.828 144.55L619.346 161.961ZM619.346 119.806L602.603 137.001L602.832 137.224L603.067 137.441L619.346 119.806ZM581.831 119.806L598.11 137.441L598.231 137.33L598.35 137.217L581.831 119.806ZM581.831 161.961L598.35 144.55L598.35 144.55L581.831 161.961ZM573.925 142.43V139.336H525.925V142.43H573.925ZM573.925 139.336C573.925 132.447 575.283 128.141 576.827 125.402L535.012 101.833C528.563 113.275 525.925 126.114 525.925 139.336H573.925ZM576.917 125.241C578.977 121.519 581.247 119.404 583.639 118.044L559.913 76.3179C549.156 82.4345 540.854 91.2773 534.922 101.994L576.917 125.241ZM583.769 117.969C586.765 116.241 589.902 115.38 593.627 115.38V67.3796C581.624 67.3796 570.194 70.3857 559.783 76.3924L583.769 117.969ZM593.627 115.38C596.669 115.38 598.624 115.655 599.735 115.914C600.836 116.17 600.702 116.315 599.972 115.814L627.117 76.2271C616.861 69.1941 604.564 67.3796 593.627 67.3796V115.38ZM599.972 115.814C601.284 116.714 602.111 117.424 602.592 117.896C603.072 118.366 603.114 118.506 602.967 118.268L643.846 93.1109C639.48 86.0149 633.388 80.5271 627.117 76.2271L599.972 115.814ZM623.407 129.689H626.887V81.6893H623.407V129.689ZM650.887 105.689V94.0869H602.887V105.689H650.887ZM626.887 118.087H650.866V70.0869H626.887V118.087ZM626.866 94.0869V207.017H674.866V94.0869H626.866ZM626.866 207.017C626.866 207.962 626.727 208.02 626.909 207.528C627 207.283 627.148 206.964 627.372 206.613C627.597 206.261 627.848 205.955 628.094 205.71L662.035 239.651C671.291 230.395 674.866 218.581 674.866 207.017H626.866ZM627.818 205.99C628.019 205.782 628.295 205.542 628.642 205.312C628.99 205.081 629.33 204.912 629.625 204.797C630.229 204.563 630.335 204.675 629.595 204.675V252.675C641.418 252.675 653.196 248.789 662.311 239.37L627.818 205.99ZM629.595 204.675H565.395V252.675H629.595V204.675ZM589.395 228.675V207.404H541.395V228.675H589.395ZM565.395 231.404H621.086V183.404H565.395V231.404ZM621.086 231.404C627.031 231.404 635.782 229.733 642.692 222.329C649.312 215.237 650.501 206.84 650.501 201.602H602.501C602.501 200.233 602.787 194.736 607.602 189.578C612.707 184.107 618.751 183.404 621.086 183.404V231.404ZM650.501 201.602V176.657H602.501V201.602H650.501ZM626.501 152.657H623.02V200.657H626.501V152.657ZM602.668 163.937C602.739 163.823 602.394 164.393 601.127 165.59L634.084 200.487C637.458 197.301 640.722 193.617 643.372 189.377L602.668 163.937ZM601.661 165.101C601.95 164.844 602.039 164.827 601.778 164.973C601.516 165.121 600.973 165.392 600.061 165.727L616.586 210.793C622.407 208.658 628.376 205.575 633.55 200.976L601.661 165.101ZM600.061 165.727C599.728 165.849 597.871 166.387 593.627 166.387V214.387C601.243 214.387 609.184 213.507 616.586 210.793L600.061 165.727ZM593.627 166.387C589.751 166.387 586.505 165.513 583.466 163.818L560.086 205.74C570.454 211.522 581.776 214.387 593.627 214.387V166.387ZM583.944 164.093C581.262 162.514 578.89 160.218 576.827 156.558L535.012 180.127C540.941 190.647 549.141 199.308 559.608 205.465L583.944 164.093ZM576.917 156.719C575.277 153.756 573.925 149.302 573.925 142.43H525.925C525.925 155.67 528.569 168.489 534.922 179.966L576.917 156.719ZM600.589 193.116C613.681 193.116 626.006 188.724 635.864 179.372L602.828 144.55C602.528 144.834 602.393 144.88 602.332 144.903C602.239 144.938 601.745 145.116 600.589 145.116V193.116ZM635.864 179.372C646.793 169.004 650.887 155.343 650.887 141.85H602.887C602.887 143.868 602.592 144.764 602.53 144.929C602.501 145.006 602.512 144.957 602.59 144.838C602.67 144.717 602.76 144.614 602.828 144.55L635.864 179.372ZM650.887 141.85V139.916H602.887V141.85H650.887ZM650.887 139.916C650.887 126.45 646.872 112.553 635.625 102.17L603.067 137.441C602.926 137.31 602.779 137.141 602.659 136.96C602.541 136.782 602.51 136.687 602.53 136.741C602.578 136.869 602.887 137.786 602.887 139.916H650.887ZM636.089 102.61C626.188 92.97 613.682 88.6507 600.589 88.6507V136.651C601.864 136.651 602.381 136.845 602.429 136.863C602.441 136.868 602.449 136.871 602.454 136.873C602.458 136.876 602.46 136.877 602.461 136.877C602.461 136.877 602.46 136.876 602.459 136.876C602.458 136.875 602.457 136.875 602.457 136.875C602.458 136.875 602.46 136.877 602.465 136.88C602.469 136.883 602.477 136.889 602.488 136.898C602.509 136.914 602.548 136.947 602.603 137.001L636.089 102.61ZM600.589 88.6507C587.496 88.6507 575.171 93.0419 565.313 102.394L598.35 137.217C598.649 136.933 598.784 136.887 598.845 136.863C598.938 136.828 599.432 136.651 600.589 136.651V88.6507ZM565.553 102.17C554.305 112.553 550.29 126.45 550.29 139.916H598.29C598.29 137.786 598.599 136.869 598.647 136.741C598.667 136.687 598.637 136.782 598.519 136.96C598.398 137.141 598.252 137.31 598.11 137.441L565.553 102.17ZM550.29 139.916V141.85H598.29V139.916H550.29ZM550.29 141.85C550.29 155.343 554.385 169.004 565.313 179.372L598.35 144.55C598.418 144.614 598.508 144.717 598.587 144.838C598.666 144.957 598.676 145.006 598.647 144.929C598.585 144.764 598.29 143.868 598.29 141.85H550.29ZM565.313 179.372C575.171 188.724 587.496 193.116 600.589 193.116V145.116C599.432 145.116 598.938 144.938 598.845 144.903C598.784 144.88 598.649 144.834 598.35 144.55L565.313 179.372Z" fill="#232323"/>
</g>
<defs>
<filter id="filter0_d_2430_1329" x="-11.1055" y="32.7051" width="701.971" height="235.97" filterUnits="userSpaceOnUse" color-interpolation-filters="sRGB">
<feFlood flood-opacity="0" result="BackgroundImageFix"/>
<feColorMatrix in="SourceAlpha" type="matrix" values="0 0 0 0 0 0 0 0 0 0 0 0 0 0 0 0 0 0 127 0" result="hardAlpha"/>
<feOffset dx="10" dy="10"/>
<feGaussianBlur stdDeviation="15"/>
<feComposite in2="hardAlpha" operator="out"/>
<feColorMatrix type="matrix" values="0 0 0 0 0 0 0 0 0 0 0 0 0 0 0 0 0 0 0.25 0"/>
<feBlend mode="normal" in2="BackgroundImageFix" result="effect1_dropShadow_2430_1329"/>
<feBlend mode="normal" in="SourceGraphic" in2="effect1_dropShadow_2430_1329" result="shape"/>
</filter>
</defs>
</svg>
