<svg width="581" height="496" viewBox="0 0 581 496" fill="none" xmlns="http://www.w3.org/2000/svg">
<g filter="url(#filter0_d_2430_1333)">
<path d="M92.8829 46.0317C99.8957 43.7235 106.077 42.307 111.428 41.7824C128.016 40.156 136.981 46.1919 138.324 59.89C138.912 65.8829 137.762 79.5014 134.875 100.745C132.084 121.872 131.166 137.304 132.121 147.043C132.488 150.788 133.012 153.924 133.692 156.451C126.593 158.983 120.154 160.533 114.375 161.1C99.179 162.59 90.9513 156.914 89.6921 144.072C89.5347 142.466 89.4676 141.23 89.4907 140.364C80.9315 156.654 70.0705 165.444 56.9074 166.734C43.2093 168.077 35.5418 160.402 33.9049 143.707C33.2649 137.179 33.3141 131.07 34.0527 125.379C34.7913 119.688 36.4605 114.122 39.0603 108.681C41.7672 103.229 45.4089 98.4965 49.9854 94.4823C54.5514 90.3611 60.5768 86.7991 68.0617 83.7962C75.5465 80.7934 84.2065 78.7558 94.0415 77.6835C94.7024 67.8946 94.7233 59.8432 94.1042 53.5292C93.8524 50.9608 93.4453 48.4616 92.8829 46.0317ZM91.3789 101.769C90.7053 101.51 89.9404 101.423 89.0843 101.507C85.6598 101.843 83.1606 105.005 81.5869 110.994C80.0132 116.983 79.4362 122.118 79.8559 126.398C80.0867 128.753 81.1118 129.841 82.9311 129.662C83.5732 129.599 84.1513 129.435 84.6654 129.168C85.169 128.795 85.6086 128.319 85.9842 127.742C86.4563 127.048 86.8749 126.358 87.24 125.674C87.6051 124.99 87.8905 124.044 88.0961 122.835C88.4088 121.616 88.6837 120.563 88.9208 119.675C89.1474 118.68 89.3425 117.365 89.5062 115.728C89.7769 114.081 89.9668 112.712 90.0759 111.62C90.2815 110.412 90.5039 108.823 90.7431 106.855C90.9718 104.78 91.1837 103.084 91.3789 101.769ZM187.48 119.411C189.942 119.17 191.697 116.135 192.746 110.306C193.795 104.476 194.282 98.9722 194.207 93.7934C194.238 88.6042 194.086 84.2973 193.75 80.8727C193.383 77.1272 192.844 73.8306 192.132 70.9831C199.552 68.4189 205.937 66.8744 211.288 66.3498C227.555 64.7549 236.464 71.8767 238.017 87.7152C238.563 93.28 237.973 102.144 236.249 114.306C234.513 126.361 234.008 136.08 234.732 143.465L234.999 146.194C226.841 148.938 219.872 150.594 214.093 151.161C200.074 152.535 192.556 148.032 191.538 137.651C191.359 135.832 191.325 134.377 191.434 133.286C182.793 147.639 172.426 155.408 160.333 156.594C147.384 157.863 140.144 150.686 138.612 135.061C138.108 129.925 138.741 120.949 140.509 108.134C142.385 95.3089 143.008 85.6858 142.379 79.2648L141.872 75.749C148.981 73.3232 155.372 71.8323 161.044 71.2761C169.177 70.4787 175.257 71.8814 179.284 75.4843C183.311 79.0871 185.712 84.8482 186.489 92.7674C186.825 96.1919 186.677 100.744 186.045 106.425C185.414 112.105 185.155 115.534 185.271 116.711C185.46 118.637 186.196 119.537 187.48 119.411ZM282.615 176.045C275.602 178.354 269.367 179.775 263.909 180.311C247.322 181.937 238.262 174.938 236.73 159.313C236.121 153.106 237.186 139.172 239.924 117.511C242.652 95.7423 243.691 81.5405 243.04 74.9055C242.694 71.3739 242.176 68.2914 241.485 65.658C247.973 63.5092 254.16 62.1463 260.046 61.5692C276.42 59.9638 285.418 65.7804 287.04 79.019C295.37 64.8046 305.582 57.1045 317.675 55.9188C331.373 54.5758 339.04 62.2515 340.677 78.9461C341.485 87.1864 341.15 94.7825 339.67 101.734C338.18 108.579 335.306 115.074 331.046 121.218C326.776 127.255 320.411 132.309 311.95 136.38C303.489 140.451 293.17 143.191 280.991 144.601C280.374 153.738 280.333 161.035 280.868 166.493C281.183 169.703 281.765 172.887 282.615 176.045ZM291.651 92.9909C290.474 93.1063 289.505 93.6876 288.743 94.7347C287.981 95.7818 287.109 98.4603 286.127 102.77C285.242 106.963 284.379 113.044 283.54 121.014C284.096 121.175 284.749 121.219 285.498 121.146C288.708 120.831 291.122 117.893 292.737 112.333C294.342 106.665 294.935 101.691 294.515 97.4101C294.211 94.3066 293.256 92.8335 291.651 92.9909ZM390.483 131.597C383.363 133.916 377.128 135.337 371.777 135.862C355.19 137.488 346.13 130.489 344.598 114.865C344.063 109.407 345.227 96.4896 348.091 76.1123C350.955 55.735 351.894 40.5166 350.908 30.4571C350.562 26.9255 350.043 23.843 349.353 21.2096C356.366 18.9013 362.548 17.4849 367.898 16.9602C376.246 16.1418 382.679 17.2937 387.199 20.4161C391.719 23.5384 394.304 28.4171 394.955 35.0521C395.5 40.617 394.34 54.1284 391.474 75.5863C388.715 97.0338 387.802 112.52 388.736 122.044C389.051 125.255 389.633 128.439 390.483 131.597ZM499.667 41.1543C499.396 42.8015 498.827 46.3687 497.961 51.8559C497.084 57.2362 496.445 61.1885 496.044 63.7128C495.74 66.1196 495.289 69.7834 494.691 74.704C494.082 79.5177 493.663 83.5025 493.432 86.6585C493.298 89.6969 493.211 93.2169 493.171 97.2185C493.131 101.22 493.279 104.933 493.615 108.358C494.055 112.852 494.791 117.048 495.821 120.945C488.722 123.478 482.284 125.027 476.505 125.594C461.201 127.094 452.915 121.37 451.645 108.421C451.488 106.816 451.421 105.58 451.444 104.713C442.681 121.131 431.772 129.98 418.716 131.26C405.018 132.603 397.35 124.927 395.713 108.233C395.063 101.598 395.107 95.4346 395.845 89.7439C396.68 83.9356 398.451 78.3056 401.158 72.8541C403.854 67.2955 407.544 62.5038 412.228 58.4791C417.008 54.3369 423.253 50.8074 430.962 47.8906C438.671 44.9738 447.609 43.017 457.776 42.0202C462.699 41.5375 468.611 41.228 475.512 41.0915C482.521 40.9446 488.299 40.9183 492.846 41.0127L499.667 41.1543ZM441.664 90.9238C441.895 93.2782 442.92 94.3662 444.739 94.1878C445.916 94.0724 446.881 93.4376 447.632 92.2835C448.48 91.0119 449.233 88.7771 449.892 85.5792C450.658 82.3708 451.203 79.6702 451.528 77.4774C451.854 75.2846 452.353 71.5621 453.027 66.3099C452.353 66.0518 451.642 65.9595 450.893 66.0329C447.468 66.3687 444.969 69.5309 443.395 75.5197C441.821 81.5084 441.244 86.6432 441.664 90.9238Z" fill="white"/>
<path d="M92.8829 46.0317L90.2047 37.8949C85.9959 39.2802 83.5382 43.6465 84.5373 47.9633L92.8829 46.0317ZM134.875 100.745L126.387 99.5916C126.385 99.6022 126.384 99.6128 126.382 99.6234L134.875 100.745ZM133.692 156.451L136.57 164.519C140.777 163.018 143.124 158.537 141.964 154.225L133.692 156.451ZM89.4907 140.364L98.0539 140.592C98.1599 136.61 95.5073 133.081 91.6531 132.075C87.7989 131.069 83.7602 132.853 81.9074 136.379L89.4907 140.364ZM34.0527 125.379L42.5477 126.481L42.5477 126.481L34.0527 125.379ZM39.0603 108.681L31.3878 104.871C31.3686 104.91 31.3497 104.949 31.331 104.988L39.0603 108.681ZM49.9854 94.4823L55.6341 100.922C55.6646 100.896 55.6949 100.869 55.725 100.841L49.9854 94.4823ZM68.0617 83.7962L71.2512 91.7466L71.2512 91.7466L68.0617 83.7962ZM94.0415 77.6835L94.97 86.1993C99.0979 85.7492 102.309 82.4034 102.588 78.2605L94.0415 77.6835ZM91.3789 101.769L99.8525 103.025C100.442 99.0538 98.1931 95.206 94.4439 93.7694L91.3789 101.769ZM81.5869 110.994L89.8719 113.171L89.8719 113.171L81.5869 110.994ZM84.6654 129.168L88.6077 136.773C89.0133 136.563 89.4015 136.321 89.7684 136.048L84.6654 129.168ZM85.9842 127.742L78.8996 122.927C78.8675 122.974 78.8359 123.021 78.8048 123.069L85.9842 127.742ZM88.0961 122.835L79.7984 120.707C79.7398 120.935 79.6907 121.166 79.6512 121.398L88.0961 122.835ZM88.9208 119.675L97.1969 121.886C97.2241 121.784 97.2495 121.681 97.273 121.578L88.9208 119.675ZM89.5062 115.728L81.0533 114.339C81.024 114.517 81.0004 114.696 80.9824 114.876L89.5062 115.728ZM90.0759 111.62L81.6309 110.184C81.5979 110.378 81.5716 110.572 81.5521 110.768L90.0759 111.62ZM90.7431 106.855L99.2468 107.888C99.2507 107.857 99.2543 107.825 99.2578 107.793L90.7431 106.855ZM95.5612 54.1685C102.181 51.9897 107.723 50.753 112.264 50.3078L110.592 33.257C104.432 33.861 97.6107 35.4572 90.2047 37.8949L95.5612 54.1685ZM112.264 50.3078C119.598 49.5887 123.665 50.7523 125.809 52.1954C127.615 53.4111 129.303 55.6666 129.799 60.7259L146.85 59.0541C146.003 50.4153 142.537 42.8038 135.377 37.9836C128.555 33.3908 119.846 32.3497 110.592 33.257L112.264 50.3078ZM129.799 60.7259C130.01 62.8792 129.939 67.1036 129.367 73.8778C128.809 80.4854 127.82 89.0428 126.387 99.5916L143.363 101.899C144.817 91.2038 145.847 82.3301 146.439 75.3192C147.016 68.475 147.226 62.8937 146.85 59.0541L129.799 60.7259ZM126.382 99.6234C123.582 120.824 122.538 137.091 123.596 147.878L140.647 146.207C139.795 137.517 140.586 122.92 143.367 101.867L126.382 99.6234ZM123.596 147.878C123.991 151.909 124.577 155.545 125.42 158.677L141.964 154.225C141.447 152.304 140.986 149.668 140.647 146.207L123.596 147.878ZM130.813 148.382C124.19 150.746 118.45 152.093 113.539 152.574L115.211 169.625C121.858 168.973 128.996 167.221 136.57 164.519L130.813 148.382ZM113.539 152.574C106.938 153.222 103.436 152.126 101.672 150.909C100.205 149.897 98.6779 147.931 98.2175 143.236L81.1667 144.908C81.9655 153.054 85.1822 160.347 91.9429 165.011C98.4061 169.47 106.616 170.468 115.211 169.625L113.539 152.574ZM98.2175 143.236C98.0707 141.739 98.0451 140.921 98.0539 140.592L80.9274 140.136C80.89 141.54 80.9987 143.194 81.1667 144.908L98.2175 143.236ZM81.9074 136.379C74.1157 151.209 65.3218 157.302 56.0715 158.209L57.7433 175.26C74.8192 173.585 87.7474 162.098 97.0739 144.348L81.9074 136.379ZM56.0715 158.209C51.0305 158.703 48.4948 157.484 46.9437 155.931C45.0961 154.081 43.1557 150.269 42.4303 142.871L25.3795 144.543C26.291 153.84 29.0028 162.213 34.8227 168.039C40.9391 174.162 49.0862 176.109 57.7433 175.26L56.0715 158.209ZM42.4303 142.871C41.8447 136.898 41.9035 131.445 42.5477 126.481L25.5577 124.276C24.7248 130.694 24.685 137.46 25.3795 144.543L42.4303 142.871ZM42.5477 126.481C43.1639 121.734 44.5604 117.039 46.7896 112.374L31.331 104.988C28.3605 111.205 26.4187 117.642 25.5577 124.276L42.5477 126.481ZM46.7329 112.491C48.943 108.04 51.8971 104.2 55.6341 100.922L44.3366 88.0424C38.9206 92.7929 34.5914 98.4193 31.3878 104.871L46.7329 112.491ZM55.725 100.841C59.3487 97.5706 64.4279 94.484 71.2512 91.7466L64.8721 75.8459C56.7257 79.1141 49.754 83.1515 44.2457 88.1232L55.725 100.841ZM71.2512 91.7466C77.8697 89.0913 85.7425 87.2054 94.97 86.1993L93.113 69.1677C82.6704 70.3063 73.2233 72.4955 64.8721 75.8459L71.2512 91.7466ZM102.588 78.2605C103.266 68.2257 103.312 59.6577 102.63 52.6933L85.5788 54.3651C86.1341 60.0286 86.139 67.5635 85.4947 77.1064L102.588 78.2605ZM102.63 52.6933C102.343 49.7689 101.877 46.9033 101.229 44.1002L84.5373 47.9633C85.0133 50.02 85.3619 52.1527 85.5788 54.3651L102.63 52.6933ZM94.4439 93.7694C92.3113 92.9522 90.1753 92.793 88.2484 92.9819L89.9202 110.033C89.7055 110.054 89.0993 110.069 88.3138 109.768L94.4439 93.7694ZM88.2484 92.9819C78.9391 93.8947 74.9994 102.357 73.3019 108.817L89.8719 113.171C90.1741 112.021 90.4835 111.152 90.7669 110.516C91.0523 109.874 91.2727 109.556 91.3624 109.442C91.4431 109.34 91.3552 109.482 91.0452 109.665C90.7098 109.863 90.3066 109.995 89.9202 110.033L88.2484 92.9819ZM73.3019 108.817C71.5739 115.393 70.7784 121.604 71.3305 127.234L88.3813 125.562C88.0939 122.632 88.4525 118.573 89.8719 113.171L73.3019 108.817ZM71.3305 127.234C71.5303 129.272 72.1866 132.332 74.5629 134.854C77.3023 137.762 80.871 138.472 83.767 138.188L82.0952 121.137C82.5479 121.092 83.3493 121.087 84.3248 121.399C85.3535 121.728 86.2948 122.322 87.0327 123.106C88.384 124.54 88.4123 125.879 88.3813 125.562L71.3305 127.234ZM83.767 138.188C85.37 138.03 87.0216 137.595 88.6077 136.773L80.723 121.563C81.2809 121.274 81.7763 121.168 82.0952 121.137L83.767 138.188ZM89.7684 136.048C91.1663 135.012 92.287 133.762 93.1636 132.415L78.8048 123.069C78.9302 122.877 79.1716 122.577 79.5623 122.288L89.7684 136.048ZM93.0687 132.558C93.6982 131.632 94.2774 130.682 94.7973 129.708L79.6828 121.641C79.4725 122.035 79.2144 122.464 78.8996 122.927L93.0687 132.558ZM94.7973 129.708C95.7725 127.881 96.2599 125.925 96.5411 124.272L79.6512 121.398C79.6235 121.561 79.5973 121.69 79.5747 121.79C79.552 121.889 79.5348 121.95 79.5264 121.978C79.5178 122.007 79.5214 121.991 79.5425 121.938C79.5633 121.885 79.6074 121.782 79.6828 121.641L94.7973 129.708ZM96.3939 124.963C96.7019 123.762 96.9692 122.738 97.1969 121.886L80.6447 117.464C80.3981 118.387 80.1157 119.47 79.7984 120.707L96.3939 124.963ZM97.273 121.578C97.6113 120.093 97.8495 118.385 98.03 116.58L80.9824 114.876C80.8355 116.345 80.6835 117.267 80.5685 117.772L97.273 121.578ZM97.9591 117.117C98.2457 115.373 98.4659 113.81 98.5996 112.473L81.5521 110.768C81.4676 111.613 81.3081 112.788 81.0533 114.339L97.9591 117.117ZM98.5208 113.057C98.7587 111.659 98.9999 109.92 99.2468 107.888L82.2394 105.822C82.0079 107.726 81.8043 109.165 81.6309 110.184L98.5208 113.057ZM99.2578 107.793C99.4806 105.772 99.6792 104.193 99.8525 103.025L82.9053 100.512C82.6882 101.975 82.463 103.787 82.2284 105.917L99.2578 107.793ZM192.746 110.306L201.177 111.823L201.177 111.823L192.746 110.306ZM194.207 93.7934L185.64 93.7416C185.64 93.8005 185.64 93.8595 185.641 93.9184L194.207 93.7934ZM192.132 70.9831L189.334 62.8867C185.138 64.3368 182.745 68.7523 183.821 73.0594L192.132 70.9831ZM236.249 114.306L244.727 115.526C244.728 115.52 244.729 115.514 244.73 115.508L236.249 114.306ZM234.999 146.194L237.731 154.313C241.512 153.041 243.914 149.328 243.525 145.358L234.999 146.194ZM191.434 133.286L199.958 134.138C200.356 130.151 197.938 126.42 194.135 125.156C190.332 123.893 186.162 125.435 184.095 128.867L191.434 133.286ZM140.509 108.134L132.033 106.894C132.03 106.917 132.027 106.94 132.024 106.963L140.509 108.134ZM142.379 79.2648L150.904 78.4289C150.892 78.2998 150.876 78.171 150.858 78.0426L142.379 79.2648ZM141.872 75.749L139.106 67.6416C135.205 68.9725 132.805 72.8921 133.393 76.9711L141.872 75.749ZM179.284 75.4843L184.996 69.1003L184.996 69.1003L179.284 75.4843ZM186.045 106.425L194.559 107.371L194.559 107.371L186.045 106.425ZM188.316 127.937C193.327 127.446 196.416 124.083 198.059 121.242C199.659 118.475 200.581 115.137 201.177 111.823L184.315 108.788C184.101 109.977 183.875 110.891 183.66 111.57C183.44 112.264 183.272 112.588 183.227 112.666C183.177 112.752 183.366 112.387 183.938 111.942C184.583 111.442 185.521 110.996 186.645 110.886L188.316 127.937ZM201.177 111.823C202.31 105.527 202.857 99.4695 202.772 93.6684L185.641 93.9184C185.708 98.4749 185.281 103.425 184.315 108.788L201.177 111.823ZM202.773 93.8453C202.805 88.4922 202.651 83.864 202.275 80.0369L185.225 81.7086C185.521 84.7305 185.671 88.7162 185.64 93.7416L202.773 93.8453ZM202.275 80.0369C201.878 75.9834 201.28 72.257 200.443 68.9069L183.821 73.0594C184.407 75.4043 184.888 78.2709 185.225 81.7086L202.275 80.0369ZM194.93 79.0796C201.977 76.6441 207.671 75.3118 212.124 74.8752L210.452 57.8244C204.204 58.437 197.126 60.1937 189.334 62.8867L194.93 79.0796ZM212.124 74.8752C218.999 74.2011 222.744 75.5252 224.822 77.1863C226.854 78.8105 228.85 82.0045 229.492 88.5511L246.543 86.8793C245.632 77.5873 242.397 69.3012 235.519 63.8036C228.687 58.343 219.843 56.9036 210.452 57.8244L212.124 74.8752ZM229.492 88.5511C229.93 93.0198 229.482 101.01 227.767 113.103L244.73 115.508C246.465 103.277 247.196 93.5403 246.543 86.8793L229.492 88.5511ZM227.77 113.085C225.99 125.447 225.386 135.936 226.206 144.301L243.257 142.629C242.629 136.225 243.036 127.275 244.727 115.526L227.77 113.085ZM226.206 144.301L226.474 147.029L243.525 145.358L243.257 142.629L226.206 144.301ZM232.268 138.074C224.459 140.701 218.163 142.154 213.257 142.635L214.929 159.686C221.582 159.034 229.222 157.175 237.731 154.313L232.268 138.074ZM213.257 142.635C207.051 143.244 203.827 142.355 202.342 141.465C201.37 140.883 200.364 139.884 200.063 136.816L183.012 138.487C183.729 145.799 186.992 152.242 193.539 156.163C199.571 159.776 207.117 160.452 214.929 159.686L213.257 142.635ZM200.063 136.816C199.909 135.24 199.929 134.421 199.958 134.138L182.91 132.433C182.72 134.333 182.81 136.425 183.012 138.487L200.063 136.816ZM184.095 128.867C176.283 141.843 167.961 147.238 159.497 148.068L161.169 165.119C176.891 163.578 189.303 153.434 198.773 137.704L184.095 128.867ZM159.497 148.068C154.802 148.529 152.551 147.397 151.222 146.079C149.608 144.479 147.808 141.073 147.137 134.226L130.086 135.897C130.947 144.675 133.534 152.669 139.16 158.247C145.071 164.106 152.915 165.928 161.169 165.119L159.497 148.068ZM147.137 134.226C146.744 130.212 147.222 122.156 148.995 109.305L132.024 106.963C130.26 119.742 129.473 129.637 130.086 135.897L147.137 134.226ZM148.986 109.374C150.882 96.4051 151.64 85.9311 150.904 78.4289L133.853 80.1007C134.377 85.4404 133.888 94.2127 132.033 106.894L148.986 109.374ZM150.858 78.0426L150.351 74.5268L133.393 76.9711L133.9 80.4869L150.858 78.0426ZM144.638 83.8563C151.308 81.5807 157.035 80.2766 161.88 79.8015L160.208 62.7507C153.709 63.3879 146.655 65.0657 139.106 67.6416L144.638 83.8563ZM161.88 79.8015C168.847 79.1184 172.077 80.5306 173.572 81.8683L184.996 69.1003C178.437 63.2322 169.507 61.839 160.208 62.7507L161.88 79.8015ZM173.572 81.8683C175.385 83.4904 177.299 86.8279 177.963 93.6033L195.014 91.9315C194.126 82.8684 191.236 74.6838 184.996 69.1003L173.572 81.8683ZM177.963 93.6033C178.216 96.1749 178.134 100.057 177.531 105.478L194.559 107.371C195.219 101.432 195.434 96.209 195.014 91.9315L177.963 93.6033ZM177.531 105.478C177.211 108.363 176.976 110.754 176.836 112.613C176.715 114.219 176.604 116.102 176.745 117.547L193.796 115.875C193.823 116.145 193.802 116.154 193.817 115.671C193.829 115.266 193.861 114.685 193.92 113.899C194.038 112.331 194.248 110.167 194.559 107.371L177.531 105.478ZM176.745 117.547C176.906 119.188 177.398 121.888 179.335 124.255C181.739 127.193 185.191 128.243 188.316 127.937L186.645 110.886C187.394 110.813 188.479 110.852 189.685 111.314C190.928 111.791 191.908 112.567 192.595 113.406C193.795 114.874 193.824 116.16 193.796 115.875L176.745 117.547ZM282.615 176.045L285.293 184.182C289.613 182.76 292.069 178.211 290.887 173.819L282.615 176.045ZM239.924 117.511L248.423 118.585L248.424 118.576L239.924 117.511ZM241.485 65.658L238.792 57.5261C234.501 58.9472 232.053 63.4579 233.199 67.8303L241.485 65.658ZM287.04 79.019L278.537 80.0608C278.984 83.7073 281.706 86.6629 285.304 87.4075C288.901 88.152 292.573 86.5198 294.43 83.3503L287.04 79.019ZM339.67 101.734L348.041 103.556C348.043 103.543 348.046 103.53 348.049 103.517L339.67 101.734ZM331.046 121.218L338.04 126.165C338.055 126.143 338.071 126.121 338.086 126.099L331.046 121.218ZM311.95 136.38L315.664 144.099L315.664 144.099L311.95 136.38ZM280.991 144.601L280.006 136.092C275.902 136.567 272.722 139.903 272.444 144.024L280.991 144.601ZM288.743 94.7347L281.816 89.6955L281.816 89.6955L288.743 94.7347ZM286.127 102.77L277.775 100.867C277.765 100.912 277.755 100.956 277.746 101L286.127 102.77ZM283.54 121.014L275.021 120.116C274.587 124.24 277.168 128.083 281.15 129.24L283.54 121.014ZM292.737 112.333L300.963 114.723C300.969 114.704 300.974 114.686 300.979 114.667L292.737 112.333ZM279.937 167.909C273.331 170.083 267.732 171.328 263.073 171.785L264.745 188.836C271.002 188.222 277.874 186.624 285.293 184.182L279.937 167.909ZM263.073 171.785C255.971 172.481 252.065 171.166 249.911 169.502C247.862 167.919 245.879 164.841 245.255 158.478L228.205 160.149C229.113 169.41 232.426 177.644 239.437 183.06C246.343 188.395 255.26 189.766 264.745 188.836L263.073 171.785ZM245.255 158.478C244.76 153.421 245.65 140.519 248.423 118.585L231.426 116.436C228.722 137.825 227.483 152.792 228.205 160.149L245.255 158.478ZM248.424 118.576C251.123 97.0361 252.327 81.8364 251.566 74.0696L234.515 75.7414C235.054 81.2447 234.181 94.4484 231.425 116.446L248.424 118.576ZM251.566 74.0696C251.188 70.2142 250.605 66.666 249.772 63.4857L233.199 67.8303C233.746 69.9169 234.2 72.5337 234.515 75.7414L251.566 74.0696ZM244.178 73.7899C250.155 71.8106 255.717 70.601 260.882 70.0946L259.21 53.0438C252.604 53.6915 245.792 55.2079 238.792 57.5261L244.178 73.7899ZM260.882 70.0946C268.121 69.3849 272.219 70.4962 274.424 71.9216C276.281 73.1217 277.953 75.2894 278.537 80.0608L295.543 77.9771C294.505 69.51 290.867 62.1501 283.725 57.5336C276.933 53.1424 268.345 52.1481 259.21 53.0438L260.882 70.0946ZM294.43 83.3503C301.909 70.5894 310.054 65.2734 318.511 64.4442L316.839 47.3934C301.11 48.9357 288.832 59.0197 279.649 74.6877L294.43 83.3503ZM318.511 64.4442C323.552 63.95 326.087 65.1696 327.638 66.7224C329.486 68.572 331.427 72.3842 332.152 79.782L349.203 78.1102C348.291 68.8135 345.579 60.4405 339.76 54.6144C333.643 48.4913 325.496 46.5446 316.839 47.3934L318.511 64.4442ZM332.152 79.782C332.888 87.2879 332.561 93.9882 331.292 99.9515L348.049 103.517C349.739 95.5769 350.083 87.0849 349.203 78.1102L332.152 79.782ZM331.3 99.9126C330.065 105.588 327.67 111.053 324.006 116.337L338.086 126.099C342.942 119.095 346.296 111.57 348.041 103.556L331.3 99.9126ZM324.052 116.271C320.819 120.842 315.732 125.054 308.236 128.661L315.664 144.099C325.089 139.564 332.733 133.668 338.04 126.165L324.052 116.271ZM308.236 128.661C300.852 132.213 291.511 134.76 280.006 136.092L281.976 153.111C294.829 151.623 306.127 148.688 315.664 144.099L308.236 128.661ZM272.444 144.024C271.813 153.364 271.741 161.194 272.343 167.329L289.394 165.657C288.925 160.876 288.935 154.111 289.538 145.178L272.444 144.024ZM272.343 167.329C272.704 171.015 273.372 174.664 274.343 178.272L290.887 173.819C290.158 171.111 289.662 168.391 289.394 165.657L272.343 167.329ZM290.815 84.4655C286.956 84.8439 283.864 86.8798 281.816 89.6955L295.67 99.7739C295.472 100.047 295.082 100.479 294.446 100.86C293.792 101.252 293.101 101.456 292.487 101.516L290.815 84.4655ZM281.816 89.6955C280.581 91.3923 279.838 93.4462 279.372 94.8776C278.824 96.5603 278.295 98.5844 277.775 100.867L294.48 104.673C294.941 102.646 295.339 101.176 295.663 100.18C295.825 99.6847 295.939 99.3971 295.996 99.2657C296.076 99.0837 295.987 99.3386 295.67 99.7739L281.816 89.6955ZM277.746 101C276.768 105.63 275.87 112.059 275.021 120.116L292.059 121.911C292.889 114.029 293.716 108.296 294.509 104.541L277.746 101ZM281.15 129.24C283.015 129.782 284.81 129.821 286.334 129.671L284.662 112.62C284.688 112.618 285.178 112.569 285.93 112.788L281.15 129.24ZM286.334 129.671C295.26 128.796 299.201 120.789 300.963 114.723L284.511 109.942C284.207 110.99 283.905 111.774 283.635 112.342C283.364 112.914 283.165 113.186 283.096 113.269C283.036 113.343 283.144 113.19 283.467 113.003C283.815 112.801 284.239 112.662 284.662 112.62L286.334 129.671ZM300.979 114.667C302.776 108.325 303.596 102.234 303.041 96.5742L285.99 98.2459C286.275 101.147 285.909 105.005 284.495 109.998L300.979 114.667ZM303.041 96.5742C302.844 94.5645 302.355 91.7803 300.76 89.3184C299.885 87.9693 298.563 86.5434 296.649 85.5596C294.692 84.5542 292.65 84.2856 290.815 84.4655L292.487 101.516C291.455 101.618 290.134 101.474 288.818 100.798C287.543 100.143 286.78 99.2495 286.383 98.6369C285.742 97.6481 285.883 97.1521 285.99 98.2459L303.041 96.5742ZM390.483 131.597L393.136 139.742C397.47 138.331 399.939 133.772 398.755 129.371L390.483 131.597ZM349.353 21.2096L346.675 13.0727C342.375 14.4879 339.919 19.0036 341.067 23.3819L349.353 21.2096ZM391.474 75.5863L382.983 74.4522C382.981 74.4659 382.98 74.4796 382.978 74.4933L391.474 75.5863ZM387.83 123.452C381.089 125.647 375.487 126.891 370.941 127.337L372.613 144.387C378.769 143.784 385.637 142.184 393.136 139.742L387.83 123.452ZM370.941 127.337C363.839 128.033 359.933 126.718 357.779 125.054C355.729 123.47 353.747 120.392 353.123 114.029L336.072 115.701C336.98 124.962 340.294 133.196 347.305 138.612C354.21 143.947 363.128 145.317 372.613 144.387L370.941 127.337ZM353.123 114.029C352.942 112.181 353.02 108.301 353.602 101.853C354.166 95.5921 355.152 87.4237 356.574 77.3046L339.608 74.92C338.167 85.1782 337.138 93.6572 336.538 100.314C335.955 106.783 335.719 112.091 336.072 115.701L353.123 114.029ZM356.574 77.3046C359.457 56.7974 360.524 40.7421 359.433 29.6212L342.383 31.293C343.265 40.2911 342.454 54.6727 339.608 74.92L356.574 77.3046ZM359.433 29.6212C359.055 25.7658 358.473 22.2175 357.639 19.0372L341.067 23.3819C341.614 25.4685 342.068 28.0853 342.383 31.293L359.433 29.6212ZM352.031 29.3464C358.651 27.1676 364.193 25.9309 368.734 25.4856L367.062 8.43482C360.902 9.03885 354.081 10.635 346.675 13.0727L352.031 29.3464ZM368.734 25.4856C376.083 24.7651 380.16 25.9651 382.33 27.4642L392.068 13.368C385.198 8.62241 376.408 7.51847 367.062 8.43482L368.734 25.4856ZM382.33 27.4642C384.336 28.8499 385.967 31.1735 386.429 35.888L403.48 34.2162C402.641 25.6607 399.102 18.2269 392.068 13.368L382.33 27.4642ZM386.429 35.888C386.617 37.8032 386.54 41.865 385.959 48.6264C385.395 55.1935 384.408 63.7882 382.983 74.4522L399.965 76.7205C401.407 65.9265 402.432 57.0366 403.029 50.0923C403.608 43.3423 403.838 37.8659 403.48 34.2162L386.429 35.888ZM382.978 74.4933C380.213 95.9855 379.174 112.31 380.211 122.88L397.261 121.208C396.43 112.73 397.217 98.082 399.97 76.6793L382.978 74.4933ZM380.211 122.88C380.572 126.567 381.24 130.216 382.211 133.823L398.755 129.371C398.026 126.662 397.53 123.943 397.261 121.208L380.211 122.88ZM499.667 41.1543L508.12 42.5433C508.522 40.0925 507.842 37.5876 506.254 35.6778C504.666 33.768 502.328 32.6414 499.845 32.5898L499.667 41.1543ZM497.961 51.8559L506.416 53.2342C506.418 53.2202 506.42 53.2062 506.422 53.1922L497.961 51.8559ZM496.044 63.7128L487.584 62.3696C487.57 62.459 487.557 62.5487 487.545 62.6385L496.044 63.7128ZM494.691 74.704L503.189 75.7783C503.191 75.7647 503.193 75.7511 503.194 75.7375L494.691 74.704ZM493.432 86.6585L484.888 86.0337C484.882 86.1158 484.878 86.198 484.874 86.2803L493.432 86.6585ZM495.821 120.945L498.7 129.013C502.893 127.517 505.241 123.059 504.103 118.755L495.821 120.945ZM451.444 104.713L460.007 104.941C460.113 100.97 457.474 97.4467 453.633 96.4314C449.792 95.416 445.757 97.1747 443.886 100.68L451.444 104.713ZM395.845 89.7439L387.366 88.5248C387.361 88.5636 387.355 88.6024 387.35 88.6413L395.845 89.7439ZM401.158 72.8541L408.831 76.6637C408.842 76.6401 408.854 76.6164 408.865 76.5927L401.158 72.8541ZM412.228 58.4791L417.811 64.9761C417.82 64.9684 417.829 64.9606 417.838 64.9529L412.228 58.4791ZM430.962 47.8906L433.993 55.9026L433.993 55.9026L430.962 47.8906ZM475.512 41.0915L475.682 49.6561L475.692 49.6559L475.512 41.0915ZM447.632 92.2835L440.504 87.5319C440.487 87.558 440.47 87.5842 440.452 87.6105L447.632 92.2835ZM449.892 85.5792L441.56 83.5902C441.539 83.6767 441.52 83.7635 441.502 83.8506L449.892 85.5792ZM451.528 77.4774L443.055 76.2206L443.055 76.2206L451.528 77.4774ZM453.027 66.3099L461.523 67.3995C462.026 63.4797 459.782 59.7247 456.092 58.3107L453.027 66.3099ZM443.395 75.5197L451.68 77.6968L451.68 77.6968L443.395 75.5197ZM491.214 39.7652C490.938 41.4439 490.365 45.0389 489.499 50.5197L506.422 53.1922C507.29 47.6986 507.854 44.1591 508.12 42.5433L491.214 39.7652ZM489.506 50.4777C488.629 55.8596 487.988 59.8266 487.584 62.3696L504.504 65.056C504.902 62.5503 505.539 58.6127 506.416 53.2342L489.506 50.4777ZM487.545 62.6385C487.239 65.0667 486.785 68.7473 486.187 73.6706L503.194 75.7375C503.792 70.8195 504.241 67.1726 504.543 64.7871L487.545 62.6385ZM486.192 73.6298C485.574 78.5233 485.134 82.6709 484.888 86.0337L501.975 87.2832C502.191 84.3341 502.591 80.5122 503.189 75.7783L486.192 73.6298ZM484.874 86.2803C484.734 89.4411 484.645 93.0624 484.605 97.1332L501.737 97.3038C501.776 93.3714 501.861 89.9527 501.99 87.0366L484.874 86.2803ZM484.605 97.1332C484.562 101.394 484.719 105.418 485.089 109.194L502.14 107.522C501.839 104.448 501.699 101.046 501.737 97.3038L484.605 97.1332ZM485.089 109.194C485.569 114.092 486.379 118.745 487.539 123.135L504.103 118.755C503.203 115.352 502.541 111.613 502.14 107.522L485.089 109.194ZM492.942 112.877C486.319 115.24 480.58 116.587 475.669 117.068L477.341 134.119C483.987 133.467 491.126 131.715 498.7 129.013L492.942 112.877ZM475.669 117.068C469.016 117.721 465.475 116.617 463.681 115.378C462.183 114.343 460.637 112.338 460.171 107.585L443.12 109.257C443.923 117.453 447.155 124.785 453.943 129.474C460.436 133.959 468.69 134.967 477.341 134.119L475.669 117.068ZM460.171 107.585C460.024 106.088 459.998 105.271 460.007 104.941L442.88 104.485C442.843 105.889 442.952 107.543 443.12 109.257L460.171 107.585ZM443.886 100.68C435.861 115.716 426.999 121.84 417.88 122.734L419.552 139.785C436.544 138.119 449.501 126.546 459.001 108.747L443.886 100.68ZM417.88 122.734C412.839 123.229 410.303 122.009 408.752 120.456C406.904 118.607 404.964 114.795 404.239 107.397L387.188 109.068C388.099 118.365 390.811 126.738 396.631 132.564C402.747 138.687 410.894 140.634 419.552 139.785L417.88 122.734ZM404.239 107.397C403.641 101.306 403.697 95.8007 404.34 90.8464L387.35 88.6413C386.516 95.0685 386.484 101.889 387.188 109.068L404.239 107.397ZM404.324 90.963C405.025 86.0888 406.513 81.3308 408.831 76.6637L393.486 69.0444C390.389 75.2805 388.336 81.7823 387.366 88.5248L404.324 90.963ZM408.865 76.5927C411.05 72.0888 414.017 68.2361 417.811 64.9761L406.645 51.9821C401.071 56.7715 396.659 62.5021 393.451 69.1154L408.865 76.5927ZM417.838 64.9529C421.664 61.6375 426.956 58.565 433.993 55.9026L427.931 39.8786C419.549 43.0498 412.352 47.0363 406.618 52.0053L417.838 64.9529ZM433.993 55.9026C440.852 53.3077 449.025 51.4855 458.612 50.5456L456.94 33.4948C446.194 34.5484 436.491 36.6399 427.931 39.8786L433.993 55.9026ZM458.612 50.5456C463.246 50.0912 468.923 49.7897 475.682 49.6561L475.343 32.5269C468.299 32.6662 462.152 32.9838 456.94 33.4948L458.612 50.5456ZM475.692 49.6559C482.638 49.5103 488.286 49.4861 492.668 49.5771L493.024 32.4482C488.312 32.3504 482.404 32.3788 475.333 32.5271L475.692 49.6559ZM492.668 49.5771L499.489 49.7187L499.845 32.5898L493.024 32.4482L492.668 49.5771ZM433.139 91.7597C433.339 93.7975 433.995 96.8577 436.371 99.3799C439.111 102.287 442.679 102.997 445.575 102.713L443.903 85.6624C444.356 85.618 445.158 85.613 446.133 85.9249C447.162 86.2539 448.103 86.848 448.841 87.6313C450.192 89.0655 450.221 90.4045 450.19 90.0879L433.139 91.7597ZM445.575 102.713C449.784 102.301 452.902 99.8899 454.811 96.9566L440.452 87.6105C440.598 87.3865 440.961 86.9139 441.635 86.4702C442.343 86.0038 443.144 85.7369 443.903 85.6624L445.575 102.713ZM454.759 97.0352C456.591 94.2881 457.596 90.6375 458.282 87.3078L441.502 83.8506C441.218 85.2277 440.947 86.2282 440.715 86.9175C440.464 87.6635 440.35 87.7632 440.504 87.5319L454.759 97.0352ZM458.224 87.5682C459.023 84.2222 459.627 81.2601 460.002 78.7342L443.055 76.2206C442.779 78.0803 442.293 80.5194 441.56 83.5902L458.224 87.5682ZM460.002 78.7342C460.341 76.4495 460.85 72.6524 461.523 67.3995L444.53 65.2203C443.856 70.4718 443.366 74.1197 443.055 76.2206L460.002 78.7342ZM456.092 58.3107C454.122 57.5559 452.07 57.3101 450.057 57.5075L451.728 74.5583C451.213 74.6088 450.584 74.5477 449.962 74.309L456.092 58.3107ZM450.057 57.5075C440.747 58.4203 436.808 66.883 435.11 73.3426L451.68 77.6968C451.982 76.5467 452.292 75.6779 452.575 75.0413C452.861 74.3999 453.081 74.0814 453.171 73.9679C453.251 73.8657 453.163 74.0078 452.853 74.1909C452.518 74.389 452.115 74.5204 451.728 74.5583L450.057 57.5075ZM435.11 73.3426C433.382 79.9185 432.587 86.1292 433.139 91.7597L450.19 90.0879C449.902 87.1571 450.261 83.0983 451.68 77.6968L435.11 73.3426Z" fill="black"/>
</g>
<g filter="url(#filter1_d_2430_1333)">
<path d="M226.759 208.795C230.794 207.467 234.35 206.652 237.428 206.35C246.971 205.414 252.129 208.887 252.902 216.767C253.24 220.215 252.578 228.049 250.917 240.271C249.312 252.425 248.784 261.303 249.333 266.906C249.544 269.061 249.845 270.865 250.237 272.318C246.153 273.775 242.448 274.667 239.124 274.993C230.381 275.85 225.648 272.584 224.924 265.197C224.833 264.273 224.794 263.562 224.808 263.063C219.884 272.435 213.635 277.492 206.063 278.234C198.182 279.007 193.771 274.591 192.83 264.987C192.461 261.231 192.49 257.716 192.915 254.443C193.339 251.169 194.3 247.967 195.795 244.836C197.353 241.7 199.448 238.977 202.081 236.668C204.707 234.297 208.174 232.248 212.48 230.52C216.786 228.793 221.768 227.621 227.426 227.004C227.806 221.372 227.818 216.74 227.462 213.108C227.317 211.63 227.083 210.192 226.759 208.795ZM225.894 240.86C225.507 240.711 225.067 240.661 224.574 240.709C222.604 240.903 221.166 242.722 220.261 246.167C219.355 249.612 219.023 252.566 219.265 255.029C219.398 256.384 219.987 257.009 221.034 256.907C221.403 256.871 221.736 256.776 222.032 256.623C222.322 256.408 222.574 256.134 222.791 255.802C223.062 255.403 223.303 255.006 223.513 254.613C223.723 254.219 223.887 253.675 224.006 252.979C224.185 252.278 224.344 251.672 224.48 251.161C224.61 250.589 224.723 249.832 224.817 248.891C224.972 247.943 225.082 247.155 225.144 246.527C225.263 245.832 225.391 244.918 225.528 243.786C225.66 242.592 225.782 241.617 225.894 240.86ZM286.941 256.505C289.835 256.222 292.686 255.507 295.495 254.361C298.36 253.148 300.486 252.007 301.873 250.939L303.962 249.429C306.311 250.566 307.601 252.304 307.83 254.644C308.138 257.783 306.948 260.542 304.259 262.919C301.571 265.296 298.237 267.114 294.259 268.375C290.274 269.574 285.788 270.417 280.801 270.906C272.797 271.691 266.262 270.654 261.196 267.794C256.191 264.928 253.38 260.355 252.764 254.075C250.851 234.559 261.684 223.645 285.264 221.333C292.837 220.59 298.781 221.313 303.098 223.5C307.477 225.681 309.868 228.835 310.273 232.96C310.605 236.346 309.472 239.378 306.876 242.057C304.279 244.736 301.062 246.792 297.224 248.224C293.448 249.651 289.405 250.576 285.096 250.999C282.879 251.216 280.457 251.236 277.829 251.058C278.671 255.203 281.708 257.018 286.941 256.505ZM282.142 236.091C280.849 236.217 279.897 236.963 279.285 238.329C278.667 239.632 278.157 242.044 277.757 245.565C280.269 245.194 282.083 244.363 283.2 243.073C284.372 241.715 284.886 240.297 284.741 238.819C284.548 236.849 283.682 235.94 282.142 236.091Z" fill="white"/>
<path d="M226.759 208.795L224.824 202.915C221.783 203.916 220.007 207.071 220.729 210.19L226.759 208.795ZM250.917 240.271L244.784 239.437C244.783 239.445 244.782 239.453 244.781 239.46L250.917 240.271ZM250.237 272.318L252.317 278.148C255.356 277.064 257.052 273.826 256.214 270.71L250.237 272.318ZM224.808 263.063L230.995 263.228C231.072 260.351 229.155 257.801 226.37 257.074C223.585 256.347 220.667 257.636 219.328 260.184L224.808 263.063ZM192.915 254.443L199.053 255.239L199.053 255.239L192.915 254.443ZM195.795 244.836L190.251 242.084C190.237 242.112 190.224 242.14 190.21 242.168L195.795 244.836ZM202.081 236.668L206.162 241.321C206.184 241.302 206.206 241.283 206.228 241.263L202.081 236.668ZM212.48 230.52L214.784 236.265L214.784 236.265L212.48 230.52ZM227.426 227.004L228.097 233.157C231.08 232.832 233.4 230.414 233.602 227.421L227.426 227.004ZM225.894 240.86L232.017 241.768C232.443 238.898 230.818 236.118 228.109 235.08L225.894 240.86ZM220.261 246.167L226.247 247.74L226.247 247.74L220.261 246.167ZM222.032 256.623L224.88 262.118C225.174 261.966 225.454 261.791 225.719 261.594L222.032 256.623ZM222.791 255.802L217.671 252.323C217.648 252.357 217.625 252.391 217.603 252.426L222.791 255.802ZM224.006 252.979L218.01 251.442C217.967 251.607 217.932 251.773 217.903 251.941L224.006 252.979ZM224.48 251.161L230.46 252.759C230.48 252.685 230.498 252.611 230.515 252.536L224.48 251.161ZM224.817 248.891L218.709 247.887C218.688 248.016 218.671 248.145 218.658 248.275L224.817 248.891ZM225.144 246.527L219.042 245.489C219.018 245.629 218.999 245.77 218.985 245.912L225.144 246.527ZM225.528 243.786L231.673 244.533C231.676 244.51 231.678 244.487 231.681 244.464L225.528 243.786ZM228.695 214.674C232.445 213.44 235.539 212.755 238.032 212.51L236.824 200.19C233.161 200.549 229.143 201.493 224.824 202.915L228.695 214.674ZM238.032 212.51C242.11 212.11 244.108 212.789 244.997 213.387C245.641 213.821 246.482 214.724 246.741 217.371L259.062 216.163C258.549 210.93 256.424 206.156 251.911 203.118C247.642 200.244 242.289 199.654 236.824 200.19L238.032 212.51ZM246.741 217.371C246.851 218.486 246.82 220.816 246.491 224.708C246.173 228.48 245.607 233.379 244.784 239.437L257.051 241.105C257.888 234.941 258.484 229.813 258.827 225.75C259.16 221.807 259.291 218.496 259.062 216.163L246.741 217.371ZM244.781 239.46C243.168 251.668 242.549 261.149 243.173 267.51L255.493 266.302C255.018 261.457 255.455 253.182 257.054 241.082L244.781 239.46ZM243.173 267.51C243.404 269.87 243.75 272.036 244.259 273.927L256.214 270.71C255.94 269.694 255.684 268.251 255.493 266.302L243.173 267.51ZM248.156 266.488C244.416 267.823 241.217 268.568 238.52 268.832L239.728 281.153C243.68 280.766 247.889 279.728 252.317 278.148L248.156 266.488ZM238.52 268.832C234.869 269.19 233.201 268.553 232.532 268.091C232.078 267.778 231.324 267.04 231.084 264.593L218.763 265.801C219.248 270.741 221.223 275.329 225.502 278.282C229.566 281.085 234.637 281.652 239.728 281.153L238.52 268.832ZM231.084 264.593C231.001 263.747 230.993 263.339 230.995 263.228L218.62 262.899C218.596 263.785 218.665 264.799 218.763 265.801L231.084 264.593ZM219.328 260.184C214.959 268.5 210.204 271.609 205.459 272.074L206.667 284.395C217.067 283.375 224.809 276.369 230.287 265.943L219.328 260.184ZM205.459 272.074C202.825 272.332 201.779 271.684 201.223 271.127C200.453 270.356 199.393 268.499 198.99 264.383L186.669 265.591C187.207 271.079 188.824 276.232 192.465 279.876C196.32 283.736 201.42 284.909 206.667 284.395L205.459 272.074ZM198.99 264.383C198.661 261.028 198.696 257.988 199.053 255.239L186.776 253.646C186.283 257.445 186.262 261.434 186.669 265.591L198.99 264.383ZM199.053 255.239C199.389 252.647 200.153 250.075 201.38 247.505L190.21 242.168C188.447 245.859 187.29 249.69 186.776 253.646L199.053 255.239ZM201.339 247.589C202.538 245.176 204.136 243.099 206.162 241.321L197.999 232.015C194.759 234.856 192.168 238.224 190.251 242.084L201.339 247.589ZM206.228 241.263C208.174 239.507 210.956 237.801 214.784 236.265L210.175 224.776C205.391 226.695 201.241 229.088 197.933 232.073L206.228 241.263ZM214.784 236.265C218.464 234.789 222.878 233.726 228.097 233.157L226.755 220.85C220.658 221.515 215.107 222.797 210.175 224.776L214.784 236.265ZM233.602 227.421C233.994 221.611 234.025 216.606 233.622 212.504L221.302 213.712C221.612 216.874 221.618 221.133 221.25 226.587L233.602 227.421ZM233.622 212.504C233.452 210.769 233.176 209.066 232.79 207.399L220.729 210.19C220.99 211.318 221.182 212.491 221.302 213.712L233.622 212.504ZM228.109 235.08C226.667 234.527 225.236 234.425 223.97 234.549L225.178 246.87C224.897 246.897 224.346 246.895 223.679 246.64L228.109 235.08ZM223.97 234.549C217.748 235.159 215.269 240.808 214.274 244.594L226.247 247.74C226.408 247.13 226.565 246.696 226.695 246.405C226.826 246.11 226.902 246.022 226.874 246.057C226.841 246.099 226.677 246.292 226.344 246.489C225.992 246.697 225.583 246.83 225.178 246.87L223.97 234.549ZM214.274 244.594C213.257 248.464 212.768 252.195 213.105 255.633L225.425 254.425C225.279 252.938 225.454 250.761 226.247 247.74L214.274 244.594ZM213.105 255.633C213.232 256.932 213.66 259.017 215.302 260.759C217.206 262.78 219.679 263.259 221.638 263.067L220.43 250.747C220.824 250.708 221.463 250.709 222.22 250.951C223.016 251.206 223.741 251.664 224.312 252.27C224.855 252.846 225.131 253.419 225.265 253.787C225.396 254.146 225.422 254.387 225.425 254.425L213.105 255.633ZM221.638 263.067C222.702 262.963 223.81 262.673 224.88 262.118L219.183 251.127C219.662 250.879 220.105 250.778 220.43 250.747L221.638 263.067ZM225.719 261.594C226.655 260.9 227.4 260.067 227.978 259.179L217.603 252.426C217.749 252.201 217.988 251.915 218.344 251.651L225.719 261.594ZM227.91 259.282C228.295 258.715 228.652 258.13 228.974 257.527L218.052 251.698C217.954 251.882 217.829 252.09 217.671 252.323L227.91 259.282ZM228.974 257.527C229.625 256.308 229.935 255.034 230.108 254.017L217.903 251.941C217.877 252.093 217.86 252.146 217.867 252.122C217.872 252.108 217.886 252.064 217.913 251.995C217.94 251.928 217.984 251.825 218.052 251.698L228.974 257.527ZM230.001 254.517C230.178 253.829 230.331 253.244 230.46 252.759L218.5 249.564C218.356 250.1 218.193 250.727 218.01 251.442L230.001 254.517ZM230.515 252.536C230.726 251.61 230.87 250.569 230.976 249.506L218.658 248.275C218.576 249.095 218.494 249.568 218.445 249.786L230.515 252.536ZM230.925 249.894C231.092 248.877 231.223 247.949 231.304 247.143L218.985 245.912C218.94 246.361 218.853 247.009 218.709 247.887L230.925 249.894ZM231.247 247.566C231.388 246.733 231.53 245.711 231.673 244.533L219.384 243.039C219.252 244.125 219.137 244.931 219.042 245.489L231.247 247.566ZM231.681 244.464C231.808 243.309 231.92 242.418 232.017 241.768L219.771 239.952C219.643 240.815 219.512 241.875 219.376 243.108L231.681 244.464ZM295.495 254.361L297.833 260.093C297.858 260.082 297.884 260.072 297.909 260.061L295.495 254.361ZM301.873 250.939L298.247 245.922C298.196 245.959 298.145 245.997 298.096 246.035L301.873 250.939ZM303.962 249.429L306.659 243.857C304.61 242.865 302.182 243.078 300.337 244.412L303.962 249.429ZM294.259 268.375L296.042 274.302C296.07 274.294 296.099 274.285 296.128 274.276L294.259 268.375ZM261.196 267.794L258.12 273.165C258.131 273.172 258.142 273.178 258.153 273.184L261.196 267.794ZM303.098 223.5L300.301 229.022C300.313 229.028 300.326 229.034 300.338 229.04L303.098 223.5ZM306.876 242.057L311.32 246.365L306.876 242.057ZM297.224 248.224L295.059 242.426C295.052 242.429 295.044 242.431 295.036 242.434L297.224 248.224ZM277.829 251.058L278.246 244.883C276.32 244.753 274.443 245.529 273.171 246.982C271.9 248.435 271.379 250.398 271.763 252.29L277.829 251.058ZM279.285 238.329L284.878 240.98C284.897 240.941 284.915 240.901 284.933 240.861L279.285 238.329ZM277.757 245.565L271.607 244.864C271.389 246.774 272.071 248.677 273.453 250.013C274.834 251.35 276.759 251.969 278.66 251.688L277.757 245.565ZM283.2 243.073L287.881 247.123L287.886 247.117L283.2 243.073ZM287.545 262.666C291.06 262.321 294.494 261.454 297.833 260.093L293.158 248.63C290.878 249.559 288.61 250.122 286.337 250.345L287.545 262.666ZM297.909 260.061C300.946 258.775 303.64 257.39 305.65 255.843L298.096 246.035C297.331 246.624 295.773 247.521 293.081 248.661L297.909 260.061ZM305.498 255.956L307.588 254.445L300.337 244.412L298.247 245.922L305.498 255.956ZM301.265 255C301.724 255.222 301.781 255.355 301.719 255.273C301.693 255.237 301.671 255.195 301.659 255.162C301.648 255.132 301.66 255.152 301.67 255.248L313.99 254.04C313.524 249.285 310.693 245.81 306.659 243.857L301.265 255ZM301.67 255.248C301.755 256.118 301.595 257.012 300.159 258.282L308.359 267.556C312.3 264.072 314.521 259.449 313.99 254.04L301.67 255.248ZM300.159 258.282C298.215 260 295.678 261.432 292.389 262.474L296.128 274.276C300.797 272.797 304.927 270.591 308.359 267.556L300.159 258.282ZM292.475 262.447C288.943 263.51 284.862 264.289 280.197 264.746L281.405 277.067C286.713 276.546 291.604 275.637 296.042 274.302L292.475 262.447ZM280.197 264.746C272.988 265.453 267.846 264.44 264.238 262.403L258.153 273.184C264.678 276.867 272.606 277.929 281.405 277.067L280.197 264.746ZM264.271 262.422C261.188 260.657 259.366 257.975 258.925 253.471L246.604 254.679C247.394 262.735 251.193 269.199 258.12 273.165L264.271 262.422ZM258.925 253.471C258.094 245.002 260.073 239.416 263.847 235.613C267.827 231.604 274.774 228.581 285.868 227.493L284.66 215.172C272.174 216.397 261.915 219.987 255.061 226.892C248.002 234.003 245.521 243.633 246.604 254.679L258.925 253.471ZM285.868 227.493C292.884 226.805 297.474 227.59 300.301 229.022L305.896 217.979C300.088 215.036 292.79 214.375 284.66 215.172L285.868 227.493ZM300.338 229.04C303.211 230.472 303.956 231.971 304.112 233.564L316.433 232.356C315.78 225.698 311.743 220.891 305.859 217.96L300.338 229.04ZM304.112 233.564C304.248 234.951 303.9 236.233 302.431 237.749L311.32 246.365C315.045 242.523 316.961 237.74 316.433 232.356L304.112 233.564ZM302.431 237.749C300.535 239.705 298.121 241.282 295.059 242.426L299.39 254.023C304.003 252.301 308.023 249.766 311.32 246.365L302.431 237.749ZM295.036 242.434C291.805 243.655 288.299 244.465 284.492 244.838L285.7 257.159C290.512 256.687 295.091 255.648 299.412 254.015L295.036 242.434ZM284.492 244.838C282.669 245.017 280.594 245.041 278.246 244.883L277.412 257.234C280.321 257.431 283.089 257.415 285.7 257.159L284.492 244.838ZM271.763 252.29C272.457 255.707 274.259 258.867 277.562 260.841C280.65 262.687 284.22 262.992 287.545 262.666L286.337 250.345C284.429 250.532 283.863 250.185 283.914 250.215C283.968 250.248 284.033 250.312 284.06 250.354C284.073 250.373 283.979 250.241 283.895 249.827L271.763 252.29ZM281.538 229.93C277.66 230.311 274.992 232.773 273.637 235.797L284.933 240.861C284.924 240.882 284.756 241.241 284.275 241.618C283.756 242.025 283.181 242.208 282.746 242.251L281.538 229.93ZM273.692 235.677C272.584 238.013 272.004 241.37 271.607 244.864L283.907 246.265C284.094 244.623 284.295 243.347 284.496 242.395C284.595 241.922 284.687 241.567 284.765 241.312C284.845 241.047 284.89 240.954 284.878 240.98L273.692 235.677ZM278.66 251.688C281.945 251.204 285.416 249.971 287.881 247.123L278.519 239.023C278.75 238.756 278.593 239.184 276.853 239.441L278.66 251.688ZM287.886 247.117C289.917 244.764 291.245 241.723 290.901 238.215L278.581 239.423C278.572 239.34 278.572 239.24 278.586 239.134C278.599 239.029 278.623 238.943 278.645 238.883C278.688 238.762 278.699 238.815 278.514 239.029L287.886 247.117ZM290.901 238.215C290.743 236.597 290.225 234.277 288.429 232.391C286.379 230.238 283.719 229.716 281.538 229.93L282.746 242.251C282.483 242.277 281.963 242.286 281.309 242.079C280.616 241.861 279.972 241.461 279.464 240.928C278.534 239.952 278.546 239.071 278.581 239.423L290.901 238.215Z" fill="black"/>
</g>
<g filter="url(#filter2_d_2430_1333)">
<path d="M105.036 272.382C114.623 269.226 123.075 267.29 130.39 266.573C153.069 264.349 165.326 272.601 167.162 291.329C167.965 299.522 166.393 318.141 162.446 347.185C158.631 376.068 157.376 397.167 158.681 410.482C159.183 415.602 159.899 419.89 160.829 423.344C151.123 426.807 142.32 428.925 134.42 429.7C113.644 431.737 102.395 423.977 100.673 406.42C100.458 404.225 100.366 402.535 100.398 401.351C88.6961 423.621 73.8471 435.639 55.8509 437.404C37.1232 439.24 26.6404 428.746 24.4025 405.921C23.5274 396.996 23.5948 388.644 24.6045 380.863C25.6143 373.083 27.8964 365.474 31.4508 358.035C35.1515 350.581 40.1303 344.111 46.3872 338.623C52.6298 332.988 60.8676 328.118 71.1007 324.013C81.3338 319.907 93.1734 317.122 106.62 315.656C107.523 302.272 107.552 291.265 106.705 282.632C106.361 279.121 105.805 275.704 105.036 272.382ZM102.979 348.584C102.058 348.231 101.013 348.112 99.8423 348.227C95.1604 348.686 91.7436 353.009 89.5921 361.197C87.4405 369.385 86.6516 376.405 87.2254 382.257C87.541 385.476 88.9425 386.963 91.4298 386.72C92.3076 386.634 93.098 386.408 93.8008 386.044C94.4894 385.533 95.0904 384.884 95.6039 384.095C96.2494 383.145 96.8217 382.203 97.3209 381.267C97.82 380.332 98.2102 379.038 98.4913 377.386C98.9188 375.719 99.2946 374.279 99.6187 373.065C99.9286 371.705 100.195 369.907 100.419 367.669C100.789 365.417 101.049 363.545 101.198 362.053C101.479 360.401 101.783 358.229 102.11 355.538C102.423 352.701 102.713 350.383 102.979 348.584ZM241.145 419.236C223.003 421.015 208.437 418.602 197.45 411.998C186.594 405.234 180.413 394.17 178.907 378.807C176.726 356.568 181.047 338.862 191.868 325.688C202.821 312.354 222.416 304.302 250.654 301.533C268.504 299.783 282.937 302.356 293.954 309.253C305.116 316.135 311.436 327.111 312.914 342.181C315.095 364.421 310.701 382.134 299.734 395.322C288.912 408.496 269.383 416.467 241.145 419.236ZM254.36 359.666C255.12 352.353 255.314 346.795 254.941 342.991C254.453 338.016 252.38 335.708 248.722 336.067C245.65 336.368 243.328 338.295 241.755 341.846C240.315 345.237 239.103 351.708 238.119 361.258C237.21 370.063 236.92 376.148 237.25 379.513C237.681 383.902 239.578 385.932 242.944 385.602C246.162 385.286 248.631 383.345 250.349 379.779C252.053 376.067 253.39 369.363 254.36 359.666ZM393.953 400.93C384.219 404.1 375.694 406.044 368.378 406.761C345.7 408.985 333.314 399.416 331.22 378.054C330.474 370.446 331.339 358.175 333.814 341.24C336.29 324.305 337.033 310.79 336.043 300.695L335.677 296.964C348.03 293.389 358.084 291.222 365.839 290.461C375.202 289.543 382.398 290.61 387.424 293.663C392.582 296.555 395.541 301.878 396.301 309.632C396.574 312.412 395.566 323.22 393.277 342.057C391.134 360.88 390.636 376.143 391.784 387.848C392.257 392.676 392.98 397.037 393.953 400.93ZM336.223 264.117C337.744 279.626 348.527 286.398 368.571 284.432C378.52 283.457 386.293 280.627 391.89 275.942C397.619 271.096 400.046 264.211 399.171 255.286C397.608 239.338 386.804 232.347 366.759 234.313C357.688 235.202 350.068 238.091 343.9 242.979C337.879 247.854 335.32 254.9 336.223 264.117ZM535.028 349.652C536.391 363.551 531.177 374.402 519.386 382.206C507.727 389.848 489.315 394.903 464.15 397.371C448.933 398.863 436.128 397.829 425.734 394.269C415.487 390.694 409.976 384.956 409.201 377.056C408.484 369.74 410.733 364.054 415.949 359.998C421.296 355.78 428.213 353.256 436.699 352.424C446.794 351.434 455.92 352.607 464.076 355.943C463.003 358.56 462.56 360.819 462.746 362.721C462.933 364.623 463.603 366.182 464.756 367.399C465.895 368.469 467.269 368.925 468.879 368.767C474.146 368.251 476.514 365.286 475.983 359.872C475.682 356.8 473.383 354.44 469.085 352.793C464.919 350.986 459.905 349.558 454.041 348.508C448.177 347.458 442.284 346.115 436.363 344.48C430.427 342.698 425.182 339.667 420.626 335.387C416.202 330.946 413.653 325.288 412.979 318.411C411.932 307.73 417.507 299.059 429.705 292.398C442.036 285.575 459.028 281.103 480.682 278.98C517.844 275.336 537.404 281.986 539.361 298.929C539.992 305.367 537.744 310.314 532.618 313.771C527.623 317.067 521.102 319.11 513.055 319.899C501.351 321.047 492.02 320.041 485.063 316.883C486.032 314.72 486.438 312.833 486.28 311.224C486.123 309.615 485.408 308.355 484.137 307.446C482.998 306.376 481.551 305.927 479.795 306.099C475.26 306.544 473.186 308.741 473.573 312.691C473.86 315.618 476.079 317.911 480.23 319.572C484.381 321.233 489.316 322.596 495.033 323.66C500.897 324.71 506.717 326.06 512.492 327.709C518.252 329.213 523.309 331.819 527.661 335.528C531.998 339.091 534.454 343.799 535.028 349.652Z" fill="white"/>
<path d="M105.036 272.382L102.357 264.245C98.1487 265.631 95.6909 269.997 96.69 274.314L105.036 272.382ZM162.446 347.185L153.958 346.031C153.956 346.042 153.955 346.053 153.953 346.063L162.446 347.185ZM160.829 423.344L163.707 431.412C167.914 429.911 170.261 425.431 169.101 421.118L160.829 423.344ZM100.398 401.351L108.961 401.579C109.067 397.597 106.415 394.067 102.56 393.062C98.7061 392.056 94.6674 393.84 92.8146 397.366L100.398 401.351ZM24.6045 380.863L33.0996 381.966L33.0996 381.966L24.6045 380.863ZM31.4508 358.035L23.7783 354.225C23.7591 354.264 23.7401 354.303 23.7215 354.341L31.4508 358.035ZM46.3872 338.623L52.0359 345.063C52.0664 345.036 52.0967 345.009 52.1269 344.982L46.3872 338.623ZM71.1007 324.013L74.2902 331.963L74.2902 331.963L71.1007 324.013ZM106.62 315.656L107.548 324.171C111.676 323.721 114.887 320.376 115.166 316.233L106.62 315.656ZM102.979 348.584L111.453 349.841C112.042 345.869 109.794 342.022 106.044 340.585L102.979 348.584ZM89.5921 361.197L97.8771 363.374L97.8771 363.374L89.5921 361.197ZM93.8008 386.044L97.7432 393.649C98.1488 393.439 98.5369 393.197 98.9039 392.924L93.8008 386.044ZM95.6039 384.095L88.5194 379.279C88.4873 379.326 88.4556 379.374 88.4245 379.422L95.6039 384.095ZM98.4913 377.386L90.1935 375.258C90.135 375.486 90.0859 375.717 90.0464 375.949L98.4913 377.386ZM99.6187 373.065L107.895 375.276C107.922 375.174 107.947 375.071 107.971 374.968L99.6187 373.065ZM100.419 367.669L91.9662 366.28C91.9369 366.458 91.9133 366.637 91.8953 366.817L100.419 367.669ZM101.198 362.053L92.753 360.617C92.72 360.81 92.6937 361.005 92.6742 361.201L101.198 362.053ZM102.11 355.538L110.614 356.572C110.618 356.54 110.621 356.508 110.625 356.477L102.11 355.538ZM107.714 280.519C116.908 277.493 124.72 275.736 131.226 275.098L129.554 258.047C121.429 258.844 112.338 260.96 102.357 264.245L107.714 280.519ZM131.226 275.098C141.606 274.08 148.018 275.649 151.808 278.2C155.259 280.524 157.894 284.591 158.636 292.165L175.687 290.493C174.594 279.339 170.181 269.916 161.376 263.988C152.908 258.287 141.853 256.841 129.554 258.047L131.226 275.098ZM158.636 292.165C158.955 295.418 158.833 301.443 158.049 310.717C157.281 319.825 155.921 331.582 153.958 346.031L170.934 348.339C172.918 333.744 174.318 321.67 175.121 312.159C175.91 302.814 176.172 295.433 175.687 290.493L158.636 292.165ZM153.953 346.063C150.128 375.02 148.747 396.954 150.156 411.317L167.207 409.646C166.004 397.38 167.133 377.117 170.938 348.307L153.953 346.063ZM150.156 411.317C150.686 416.723 151.464 421.511 152.557 425.57L169.101 421.118C168.334 418.269 167.681 414.482 167.207 409.646L150.156 411.317ZM157.95 415.276C148.72 418.569 140.616 420.485 133.584 421.175L135.255 438.226C144.024 437.366 153.527 435.045 163.707 431.412L157.95 415.276ZM133.584 421.175C124.192 422.096 118.54 420.616 115.265 418.357C112.288 416.303 109.89 412.637 109.199 405.584L92.1479 407.256C93.1778 417.76 97.2653 426.753 105.537 432.459C113.51 437.96 123.871 439.342 135.255 438.226L133.584 421.175ZM109.199 405.584C108.994 403.497 108.944 402.226 108.961 401.579L91.8346 401.123C91.7888 402.844 91.9221 404.953 92.1479 407.256L109.199 405.584ZM92.8146 397.366C81.8802 418.177 69.0984 427.497 55.015 428.878L56.6868 445.929C78.5958 443.781 95.5119 429.066 107.981 405.335L92.8146 397.366ZM55.015 428.878C47.4592 429.619 42.9623 427.818 40.0035 424.856C36.7482 421.597 33.9537 415.548 32.9279 405.085L15.8771 406.757C17.0891 419.119 20.6549 429.729 27.8825 436.964C35.4065 444.496 45.5149 447.024 56.6868 445.929L55.015 428.878ZM32.9279 405.085C32.1073 396.716 32.1841 389.02 33.0996 381.966L16.1095 379.761C15.0054 388.268 14.9476 397.277 15.8771 406.757L32.9279 405.085ZM33.0996 381.966C33.9869 375.129 35.9963 368.391 39.1801 361.728L23.7215 354.341C19.7964 362.556 17.2417 371.037 16.1095 379.761L33.0996 381.966ZM39.1234 361.844C42.3273 355.391 46.6186 349.814 52.0359 345.063L40.7385 332.183C33.6421 338.407 27.9758 345.771 23.7783 354.225L39.1234 361.844ZM52.1269 344.982C57.4271 340.198 64.7187 335.803 74.2902 331.963L67.9111 316.062C57.0165 320.433 47.8324 325.779 40.6476 332.263L52.1269 344.982ZM74.2902 331.963C83.657 328.205 94.7095 325.571 107.548 324.171L105.691 307.14C91.6374 308.672 79.0106 311.609 67.9111 316.062L74.2902 331.963ZM115.166 316.233C116.087 302.604 116.141 291.079 115.231 281.797L98.18 283.468C98.9626 291.45 98.9598 301.941 98.0728 315.079L115.166 316.233ZM115.231 281.797C114.852 277.929 114.237 274.146 113.381 270.451L96.69 274.314C97.3725 277.263 97.8706 280.313 98.18 283.468L115.231 281.797ZM106.044 340.585C103.664 339.673 101.248 339.482 99.0064 339.702L100.678 356.752C100.778 356.743 100.452 356.789 99.9143 356.583L106.044 340.585ZM99.0064 339.702C88.4397 340.738 83.5823 350.361 81.3071 359.02L97.8771 363.374C98.7976 359.871 99.7979 358 100.489 357.125C101.022 356.45 101.052 356.716 100.678 356.752L99.0064 339.702ZM81.3071 359.02C79.0012 367.795 77.9939 375.891 78.7 383.093L95.7508 381.421C95.3094 376.919 95.8798 370.975 97.8771 363.374L81.3071 359.02ZM78.7 383.093C78.9422 385.563 79.7138 388.939 82.2783 391.661C85.2059 394.768 89.0357 395.562 92.2657 395.245L90.5939 378.194C90.8796 378.166 91.5322 378.148 92.3772 378.419C93.2754 378.706 94.1043 379.229 94.7481 379.913C95.9112 381.147 95.8243 382.17 95.7508 381.421L78.7 383.093ZM92.2657 395.245C94.1045 395.065 95.9683 394.569 97.7432 393.649L89.8585 378.439C90.2276 378.247 90.5108 378.202 90.5939 378.194L92.2657 395.245ZM98.9039 392.924C100.487 391.75 101.769 390.326 102.783 388.768L88.4245 379.422C88.4152 379.436 88.4311 379.409 88.4793 379.357C88.5283 379.304 88.601 379.235 88.6978 379.164L98.9039 392.924ZM102.688 388.91C103.491 387.729 104.224 386.526 104.878 385.301L89.7636 377.234C89.4192 377.879 89.0074 378.561 88.5194 379.279L102.688 388.91ZM104.878 385.301C105.987 383.223 106.58 380.919 106.936 378.823L90.0464 375.949C89.9519 376.505 89.858 376.885 89.7863 377.122C89.7121 377.369 89.6869 377.378 89.7636 377.234L104.878 385.301ZM106.789 379.514C107.212 377.865 107.58 376.454 107.895 375.276L91.3426 370.855C91.009 372.104 90.6257 373.573 90.1935 375.258L106.789 379.514ZM107.971 374.968C108.392 373.118 108.702 370.927 108.943 368.521L91.8953 366.817C91.6883 368.887 91.4647 370.293 91.2665 371.162L107.971 374.968ZM108.872 369.058C109.258 366.709 109.548 364.644 109.722 362.906L92.6742 361.201C92.5496 362.446 92.3203 364.125 91.9662 366.28L108.872 369.058ZM109.643 363.49C109.956 361.648 110.279 359.326 110.614 356.572L93.6064 354.505C93.2872 357.132 93.0019 359.154 92.753 360.617L109.643 363.49ZM110.625 356.477C110.932 353.693 111.208 351.492 111.453 349.841L94.5058 347.327C94.2171 349.274 93.9141 351.709 93.5954 354.6L110.625 356.477ZM197.45 411.998L192.919 419.269C192.958 419.293 192.998 419.317 193.037 419.34L197.45 411.998ZM191.868 325.688L198.487 331.125L198.487 331.125L191.868 325.688ZM293.954 309.253L289.408 316.514C289.425 316.524 289.441 316.535 289.458 316.545L293.954 309.253ZM299.734 395.322L293.147 389.845C293.136 389.858 293.125 389.872 293.114 389.885L299.734 395.322ZM254.36 359.666L245.839 358.78C245.838 358.791 245.837 358.802 245.836 358.814L254.36 359.666ZM241.755 341.846L233.922 338.379C233.905 338.418 233.888 338.458 233.871 338.498L241.755 341.846ZM238.119 361.258L246.64 362.138L246.641 362.136L238.119 361.258ZM250.349 379.779L258.066 383.498C258.09 383.45 258.112 383.402 258.135 383.353L250.349 379.779ZM240.309 410.711C223.249 412.383 210.732 409.987 201.863 404.656L193.037 419.34C206.143 427.218 222.756 429.646 241.981 427.761L240.309 410.711ZM201.98 404.728C193.859 399.667 188.739 391.297 187.432 377.972L170.381 379.643C172.087 397.043 179.329 410.8 192.919 419.269L201.98 404.728ZM187.432 377.972C185.402 357.263 189.515 342.048 198.487 331.125L185.248 320.251C172.578 335.676 168.051 355.873 170.381 379.643L187.432 377.972ZM198.487 331.125C207.306 320.389 224.128 312.742 251.49 310.059L249.818 293.008C220.705 295.862 198.336 304.318 185.248 320.251L198.487 331.125ZM251.49 310.059C268.16 308.424 280.508 310.942 289.408 316.514L298.499 301.992C285.366 293.771 268.848 291.142 249.818 293.008L251.49 310.059ZM289.458 316.545C297.971 321.793 303.126 330.143 304.389 343.017L321.439 341.345C319.747 324.08 312.262 310.477 298.449 301.961L289.458 316.545ZM304.389 343.017C306.416 363.697 302.245 378.905 293.147 389.845L306.32 400.8C319.157 385.363 323.773 365.144 321.439 341.345L304.389 343.017ZM293.114 389.885C284.441 400.444 267.707 408.024 240.309 410.711L241.981 427.761C271.059 424.91 293.384 416.548 306.353 400.76L293.114 389.885ZM262.88 360.552C263.656 353.088 263.925 346.838 263.466 342.155L246.415 343.827C246.702 346.751 246.584 351.618 245.839 358.78L262.88 360.552ZM263.466 342.155C263.144 338.874 262.193 334.922 259.394 331.805C256.186 328.234 251.86 327.152 247.886 327.542L249.558 344.592C249.514 344.597 249.069 344.632 248.41 344.408C247.701 344.167 247.084 343.739 246.647 343.253C246.252 342.813 246.162 342.503 246.196 342.601C246.233 342.706 246.342 343.078 246.415 343.827L263.466 342.155ZM247.886 327.542C240.915 328.225 236.368 332.854 233.922 338.379L249.589 345.314C249.988 344.412 250.253 344.242 250.145 344.331C250.086 344.38 249.976 344.454 249.828 344.515C249.682 344.576 249.578 344.59 249.558 344.592L247.886 327.542ZM233.871 338.498C231.861 343.229 230.573 350.919 229.598 360.38L246.641 362.136C247.634 352.497 248.769 347.245 249.64 345.195L233.871 338.498ZM229.598 360.378C228.695 369.125 228.3 376.014 228.725 380.349L245.776 378.677C245.541 376.281 245.725 371.001 246.64 362.138L229.598 360.378ZM228.725 380.349C229.023 383.393 229.942 387.186 232.739 390.177C235.907 393.565 240.086 394.489 243.779 394.127L242.108 377.076C242.182 377.069 242.647 377.035 243.328 377.255C244.061 377.492 244.74 377.927 245.254 378.476C245.728 378.984 245.885 379.398 245.901 379.441C245.913 379.474 245.833 379.257 245.776 378.677L228.725 380.349ZM243.779 394.127C250.673 393.451 255.388 389.057 258.066 383.498L242.632 376.061C242.196 376.965 241.89 377.194 241.915 377.175C241.929 377.164 241.981 377.128 242.058 377.098C242.133 377.068 242.161 377.071 242.108 377.076L243.779 394.127ZM258.135 383.353C260.495 378.21 261.914 370.211 262.884 360.518L245.836 358.814C244.866 368.514 243.611 373.924 242.564 376.206L258.135 383.353ZM393.953 400.93L396.605 409.075C400.883 407.682 403.354 403.218 402.264 398.854L393.953 400.93ZM333.814 341.24L342.29 342.479L342.29 342.479L333.814 341.24ZM335.677 296.964L333.296 288.735C329.332 289.882 326.749 293.693 327.152 297.8L335.677 296.964ZM387.424 293.663L382.977 300.985C383.062 301.036 383.148 301.086 383.235 301.135L387.424 293.663ZM393.277 342.057L384.773 341.024C384.77 341.045 384.768 341.067 384.765 341.088L393.277 342.057ZM391.89 275.942L397.389 282.511C397.4 282.501 397.411 282.492 397.422 282.483L391.89 275.942ZM343.9 242.979L338.579 236.266C338.556 236.284 338.533 236.303 338.511 236.321L343.9 242.979ZM391.3 392.785C381.945 395.832 374.053 397.597 367.543 398.236L369.214 415.286C377.335 414.49 386.493 412.369 396.605 409.075L391.3 392.785ZM367.543 398.236C357.395 399.231 351.134 397.422 347.317 394.473C343.605 391.605 340.65 386.45 339.745 377.218L322.694 378.89C323.884 391.02 328.17 401.33 336.843 408.031C345.412 414.651 356.684 416.515 369.214 415.286L367.543 398.236ZM339.745 377.218C339.109 370.733 339.823 359.359 342.29 342.479L325.338 340.001C322.854 356.99 321.838 370.159 322.694 378.89L339.745 377.218ZM342.29 342.479C344.808 325.258 345.657 310.957 344.568 299.859L327.518 301.531C328.409 310.623 327.772 323.353 325.338 340.001L342.29 342.479ZM344.568 299.859L344.203 296.128L327.152 297.8L327.518 301.531L344.568 299.859ZM338.058 305.193C350.187 301.683 359.67 299.674 366.675 298.987L365.003 281.936C356.499 282.77 345.874 285.095 333.296 288.735L338.058 305.193ZM366.675 298.987C375.219 298.149 380.234 299.318 382.977 300.985L391.87 286.341C384.561 281.902 375.186 280.937 365.003 281.936L366.675 298.987ZM383.235 301.135C385.202 302.238 387.193 304.524 387.776 310.468L404.827 308.796C403.889 299.231 399.962 290.871 391.613 286.191L383.235 301.135ZM387.776 310.468C387.774 310.445 387.804 311.054 387.712 312.759C387.628 314.302 387.467 316.38 387.22 319.028C386.727 324.315 385.914 331.635 384.773 341.024L401.78 343.091C402.929 333.642 403.764 326.14 404.279 320.619C404.756 315.507 405.061 311.183 404.827 308.796L387.776 310.468ZM384.765 341.088C382.59 360.194 382.027 376.129 383.258 388.684L400.309 387.012C399.245 376.158 399.677 361.565 401.788 343.026L384.765 341.088ZM383.258 388.684C383.765 393.847 384.549 398.632 385.642 403.006L402.264 398.854C401.411 395.442 400.75 391.505 400.309 387.012L383.258 388.684ZM327.698 264.953C328.653 274.69 332.754 282.969 340.895 288.082C348.589 292.914 358.522 294.025 369.407 292.958L367.735 275.907C358.575 276.805 353.095 275.513 350.007 273.573C347.365 271.914 345.315 269.053 344.749 263.281L327.698 264.953ZM369.407 292.958C380.455 291.875 390.063 288.643 397.389 282.511L386.392 269.373C382.524 272.611 376.586 275.039 367.735 275.907L369.407 292.958ZM397.422 282.483C405.739 275.448 408.785 265.552 407.697 254.45L390.646 256.122C391.308 262.871 389.5 266.745 386.358 269.401L397.422 282.483ZM407.697 254.45C406.729 244.579 402.672 236.146 394.549 230.89C386.827 225.893 376.848 224.716 365.923 225.787L367.595 242.838C376.714 241.944 382.16 243.28 385.242 245.274C387.923 247.009 390.05 250.046 390.646 256.122L407.697 254.45ZM365.923 225.787C355.479 226.811 346.231 230.202 338.579 236.266L349.221 249.693C353.905 245.98 359.897 243.593 367.595 242.838L365.923 225.787ZM338.511 236.321C329.789 243.381 326.577 253.515 327.698 264.953L344.749 263.281C344.063 256.284 345.968 252.326 349.29 249.638L338.511 236.321ZM519.386 382.206L524.082 389.37C524.093 389.363 524.103 389.356 524.114 389.349L519.386 382.206ZM425.734 394.269L422.913 402.357C422.928 402.362 422.943 402.367 422.959 402.373L425.734 394.269ZM415.949 359.998L421.208 366.759C421.223 366.748 421.238 366.736 421.253 366.724L415.949 359.998ZM464.076 355.943L472.002 359.194C472.864 357.09 472.855 354.731 471.977 352.634C471.099 350.537 469.423 348.876 467.319 348.015L464.076 355.943ZM464.756 367.399L458.54 373.293C458.653 373.412 458.77 373.529 458.89 373.642L464.756 367.399ZM469.085 352.793L465.675 360.652C465.789 360.701 465.904 360.748 466.02 360.793L469.085 352.793ZM454.041 348.508L452.531 356.94L452.531 356.94L454.041 348.508ZM436.363 344.48L433.9 352.685C433.961 352.703 434.022 352.72 434.083 352.737L436.363 344.48ZM420.626 335.387L414.557 341.433C414.624 341.5 414.691 341.566 414.76 341.63L420.626 335.387ZM429.705 292.398L433.811 299.916C433.825 299.908 433.839 299.901 433.853 299.893L429.705 292.398ZM539.361 298.929L547.886 298.093C547.882 298.044 547.876 297.995 547.871 297.946L539.361 298.929ZM532.618 313.771L537.336 320.921C537.36 320.905 537.384 320.889 537.407 320.873L532.618 313.771ZM485.063 316.883L477.246 313.379C475.317 317.681 477.228 322.734 481.521 324.683L485.063 316.883ZM484.137 307.446L478.272 313.689C478.549 313.949 478.843 314.191 479.152 314.412L484.137 307.446ZM495.033 323.66L493.466 332.082C493.485 332.085 493.504 332.089 493.524 332.092L495.033 323.66ZM512.492 327.709L510.139 335.946C510.202 335.964 510.265 335.982 510.329 335.998L512.492 327.709ZM527.661 335.528L522.104 342.048C522.143 342.082 522.183 342.115 522.223 342.148L527.661 335.528ZM526.503 350.487C527.056 356.131 526.244 360.706 524.418 364.505C522.59 368.31 519.492 371.863 514.658 375.062L524.114 389.349C531.071 384.745 536.475 378.971 539.861 371.925C543.249 364.872 544.363 357.072 543.553 348.816L526.503 350.487ZM514.69 375.042C504.786 381.534 488.052 386.42 463.314 388.845L464.985 405.896C490.578 403.387 510.668 398.163 524.082 389.37L514.69 375.042ZM463.314 388.845C448.87 390.262 437.383 389.204 428.51 386.164L422.959 402.373C434.873 406.454 448.996 407.464 464.985 405.896L463.314 388.845ZM428.556 386.18C420.1 383.231 418.055 379.57 417.727 376.22L400.676 377.892C401.897 390.343 410.874 398.157 422.913 402.357L428.556 386.18ZM417.727 376.22C417.258 371.439 418.606 368.783 421.208 366.759L410.689 353.236C402.86 359.326 399.71 368.042 400.676 377.892L417.727 376.22ZM421.253 366.724C425.025 363.749 430.27 361.661 437.535 360.949L435.863 343.898C426.156 344.85 417.567 347.811 410.644 353.271L421.253 366.724ZM437.535 360.949C446.453 360.075 454.15 361.139 460.833 363.872L467.319 348.015C457.689 344.076 447.135 342.793 435.863 343.898L437.535 360.949ZM456.15 352.693C454.782 356.029 453.848 359.757 454.221 363.557L471.272 361.885C471.275 361.913 471.252 361.722 471.345 361.249C471.438 360.775 471.631 360.097 472.002 359.194L456.15 352.693ZM454.221 363.557C454.566 367.076 455.895 370.503 458.54 373.293L470.972 361.505C471.03 361.565 471.088 361.638 471.142 361.719C471.195 361.8 471.233 361.875 471.259 361.936C471.313 362.061 471.29 362.068 471.272 361.885L454.221 363.557ZM458.89 373.642C461.9 376.469 465.744 377.682 469.714 377.293L468.043 360.242C468.291 360.217 468.763 360.222 469.34 360.413C469.924 360.607 470.358 360.908 470.622 361.156L458.89 373.642ZM469.714 377.293C473.722 376.9 478.178 375.409 481.298 371.502C484.381 367.643 484.897 363 484.509 359.036L467.458 360.708C467.525 361.396 467.464 361.666 467.47 361.638C467.475 361.615 467.501 361.511 467.573 361.353C467.647 361.192 467.758 361.003 467.912 360.81C468.066 360.617 468.234 360.458 468.395 360.335C468.553 360.215 468.676 360.152 468.732 360.126C468.828 360.083 468.654 360.182 468.043 360.242L469.714 377.293ZM484.509 359.036C483.748 351.278 477.813 346.964 472.15 344.794L466.02 360.793C466.703 361.054 467.176 361.295 467.487 361.484C467.797 361.672 467.904 361.783 467.898 361.777C467.882 361.761 467.77 361.638 467.656 361.401C467.539 361.156 467.477 360.908 467.458 360.708L484.509 359.036ZM472.495 344.935C467.565 342.796 461.878 341.208 455.551 340.075L452.531 356.94C457.932 357.907 462.274 359.176 465.675 360.652L472.495 344.935ZM455.551 340.075C449.954 339.073 444.318 337.79 438.643 336.223L434.083 352.737C440.25 354.44 446.4 355.842 452.531 356.94L455.551 340.075ZM438.826 336.275C434.172 334.879 430.089 332.524 426.492 329.144L414.76 341.63C420.274 346.811 426.682 350.518 433.9 352.685L438.826 336.275ZM426.695 329.342C423.812 326.447 422.007 322.698 421.504 317.575L404.454 319.247C405.3 327.877 408.593 335.445 414.557 341.433L426.695 329.342ZM421.504 317.575C421.161 314.069 421.881 311.173 423.58 308.53C425.37 305.748 428.55 302.789 433.811 299.916L425.6 284.879C418.662 288.668 412.956 293.376 409.17 299.264C405.294 305.292 403.75 312.072 404.454 319.247L421.504 317.575ZM433.853 299.893C444.758 293.859 460.459 289.57 481.518 287.505L479.846 270.454C457.597 272.636 439.313 277.292 425.558 284.902L433.853 299.893ZM481.518 287.505C499.71 285.721 512.428 286.612 520.466 289.345C524.379 290.675 526.793 292.312 528.263 293.924C529.657 295.452 530.553 297.333 530.851 299.912L547.871 297.946C547.19 292.054 544.908 286.75 540.922 282.379C537.013 278.093 531.848 275.119 525.981 273.124C514.459 269.207 498.816 268.594 479.846 270.454L481.518 287.505ZM530.836 299.765C531.032 301.772 530.742 303.061 530.349 303.925C529.967 304.766 529.264 305.701 527.829 306.669L537.407 320.873C541.098 318.384 544.082 315.117 545.948 311.011C547.803 306.927 548.321 302.524 547.886 298.093L530.836 299.765ZM527.899 306.621C524.404 308.929 519.345 310.675 512.219 311.374L513.891 328.424C522.86 327.545 530.843 325.206 537.336 320.921L527.899 306.621ZM512.219 311.374C501.272 312.447 493.644 311.371 488.604 309.083L481.521 324.683C490.396 328.712 501.429 329.646 513.891 328.424L512.219 311.374ZM492.88 320.387C494.194 317.455 495.161 314.015 494.806 310.388L477.755 312.06C477.733 311.831 477.771 311.804 477.72 312.043C477.667 312.287 477.539 312.725 477.246 313.379L492.88 320.387ZM494.806 310.388C494.417 306.418 492.481 302.882 489.122 300.479L479.152 314.412C478.858 314.202 478.479 313.834 478.175 313.299C477.875 312.77 477.779 312.308 477.755 312.06L494.806 310.388ZM490.003 301.203C486.82 298.212 482.821 297.195 478.96 297.573L480.631 314.624C480.557 314.631 480.191 314.653 479.66 314.488C479.102 314.315 478.619 314.015 478.272 313.689L490.003 301.203ZM478.96 297.573C475.644 297.898 471.634 298.995 468.608 302.201C465.377 305.625 464.693 309.908 465.048 313.527L482.098 311.856C482.08 311.664 482.13 311.869 482.005 312.324C481.866 312.831 481.565 313.434 481.068 313.96C480.116 314.969 479.411 314.744 480.631 314.624L478.96 297.573ZM465.048 313.527C465.792 321.125 471.632 325.358 477.048 327.526L483.412 311.619C482.753 311.355 482.297 311.116 481.997 310.93C481.698 310.744 481.598 310.638 481.609 310.65C481.628 310.67 481.75 310.803 481.873 311.06C482 311.325 482.074 311.606 482.098 311.856L465.048 313.527ZM477.048 327.526C481.849 329.447 487.351 330.944 493.466 332.082L496.601 315.239C491.281 314.248 486.914 313.02 483.412 311.619L477.048 327.526ZM493.524 332.092C499.101 333.091 504.639 334.375 510.139 335.946L514.844 319.473C508.794 317.744 502.693 316.329 496.543 315.228L493.524 332.092ZM510.329 335.998C514.892 337.189 518.776 339.211 522.104 342.048L533.217 329.009C527.841 324.427 521.613 321.236 514.655 319.421L510.329 335.998ZM522.223 342.148C524.715 344.194 526.139 346.776 526.503 350.487L543.553 348.816C542.77 340.822 539.282 333.989 533.098 328.909L522.223 342.148Z" fill="black"/>
</g>
<defs>
<filter id="filter0_d_2430_1333" x="24.7441" y="4.07227" width="503.723" height="214.383" filterUnits="userSpaceOnUse" color-interpolation-filters="sRGB">
<feFlood flood-opacity="0" result="BackgroundImageFix"/>
<feColorMatrix in="SourceAlpha" type="matrix" values="0 0 0 0 0 0 0 0 0 0 0 0 0 0 0 0 0 0 127 0" result="hardAlpha"/>
<feOffset dx="15.8185" dy="14.443"/>
<feGaussianBlur stdDeviation="0.856628"/>
<feComposite in2="hardAlpha" operator="out"/>
<feColorMatrix type="matrix" values="0 0 0 0 0 0 0 0 0 0 0 0 0 0 0 0 0 0 1 0"/>
<feBlend mode="normal" in2="BackgroundImageFix" result="effect1_dropShadow_2430_1333"/>
<feBlend mode="normal" in="SourceGraphic" in2="effect1_dropShadow_2430_1333" result="shape"/>
</filter>
<filter id="filter1_d_2430_1333" x="187.561" y="199.529" width="136.731" height="87.0398" filterUnits="userSpaceOnUse" color-interpolation-filters="sRGB">
<feFlood flood-opacity="0" result="BackgroundImageFix"/>
<feColorMatrix in="SourceAlpha" type="matrix" values="0 0 0 0 0 0 0 0 0 0 0 0 0 0 0 0 0 0 127 0" result="hardAlpha"/>
<feOffset dx="9.62868" dy="6.18986"/>
<feGaussianBlur stdDeviation="0.492815"/>
<feComposite in2="hardAlpha" operator="out"/>
<feColorMatrix type="matrix" values="0 0 0 0 0 0 0 0 0 0 0 0 0 0 0 0 0 0 1 0"/>
<feBlend mode="normal" in2="BackgroundImageFix" result="effect1_dropShadow_2430_1333"/>
<feBlend mode="normal" in="SourceGraphic" in2="effect1_dropShadow_2430_1333" result="shape"/>
</filter>
<filter id="filter2_d_2430_1333" x="10.9961" y="218.166" width="570.001" height="250.1" filterUnits="userSpaceOnUse" color-interpolation-filters="sRGB">
<feFlood flood-opacity="0" result="BackgroundImageFix"/>
<feColorMatrix in="SourceAlpha" type="matrix" values="0 0 0 0 0 0 0 0 0 0 0 0 0 0 0 0 0 0 127 0" result="hardAlpha"/>
<feOffset dx="30.4502" dy="25.7655"/>
<feGaussianBlur stdDeviation="1.17116"/>
<feComposite in2="hardAlpha" operator="out"/>
<feColorMatrix type="matrix" values="0 0 0 0 0 0 0 0 0 0 0 0 0 0 0 0 0 0 1 0"/>
<feBlend mode="normal" in2="BackgroundImageFix" result="effect1_dropShadow_2430_1333"/>
<feBlend mode="normal" in="SourceGraphic" in2="effect1_dropShadow_2430_1333" result="shape"/>
</filter>
</defs>
</svg>
