<svg width="775" height="377" viewBox="0 0 775 377" fill="none" xmlns="http://www.w3.org/2000/svg">
<g filter="url(#filter0_d_2430_1337)">
<path d="M385.722 211L323.275 260.715H347.527L327.519 292.242H339.645L316 336.5L382.085 278.903H362.684L382.085 251.621H362.684L385.722 211Z" fill="#F3A12D"/>
</g>
<path d="M57.7734 280V126.312H1.68272V83.6826H163.785V126.312H107.694V280H57.7734ZM177.054 280V83.6826H227.255V237.371H312.513V280H177.054Z" fill="white"/>
<path d="M403.108 280V83.6826H472.66C526.227 83.6826 575.586 113.13 575.586 181.841C575.586 250.552 526.227 280 472.66 280H403.108ZM453.028 237.371H466.771C496.499 237.371 525.385 224.751 525.385 181.841C525.385 138.932 496.499 126.312 466.771 126.312H453.028V237.371ZM753.97 223.629L760.14 280H709.939L703.769 230.921C702.367 219.983 693.953 212.691 683.015 212.691H651.324V280H601.123V83.6826H687.503C730.692 83.6826 755.372 110.606 755.372 147.346C755.372 166.136 746.959 178.756 732.936 186.329C744.715 194.742 752.287 207.643 753.97 223.629ZM651.324 124.629V170.062H684.137C700.123 170.062 707.695 159.405 707.695 147.346C707.695 135.286 700.123 124.629 684.137 124.629H651.324Z" fill="white"/>
<path d="M24.814 306.534H37.684V317.688H47.59V328.296H37.684V341.244C37.684 344.832 39.478 346.392 42.832 346.392H47.59V357H40.882C31.21 357 24.814 351.618 24.814 341.868V328.296H17.56V317.688H24.814V306.534ZM71.6024 357.624C59.3564 357.624 50.5424 348.966 50.5424 337.344C50.5424 325.722 59.3564 317.064 71.6024 317.064C83.8484 317.064 92.6624 325.722 92.6624 337.344C92.6624 348.966 83.8484 357.624 71.6024 357.624ZM71.6024 346.704C76.5164 346.704 79.7924 342.96 79.7924 337.344C79.7924 331.728 76.5164 327.984 71.6024 327.984C66.6884 327.984 63.4124 331.728 63.4124 337.344C63.4124 342.96 66.6884 346.704 71.6024 346.704ZM116.849 357.624C104.603 357.624 95.7885 348.966 95.7885 337.344C95.7885 325.722 104.603 317.064 116.849 317.064C129.095 317.064 137.909 325.722 137.909 337.344C137.909 348.966 129.095 357.624 116.849 357.624ZM116.849 346.704C121.763 346.704 125.039 342.96 125.039 337.344C125.039 331.728 121.763 327.984 116.849 327.984C111.935 327.984 108.659 331.728 108.659 337.344C108.659 342.96 111.935 346.704 116.849 346.704ZM159.302 357V300.216H172.172V357H159.302ZM199.038 357.624C186.792 357.624 177.978 348.966 177.978 337.344C177.978 325.722 186.792 317.064 199.038 317.064C211.284 317.064 220.098 325.722 220.098 337.344C220.098 348.966 211.284 357.624 199.038 357.624ZM199.038 346.704C203.952 346.704 207.228 342.96 207.228 337.344C207.228 331.728 203.952 327.984 199.038 327.984C194.124 327.984 190.848 331.728 190.848 337.344C190.848 342.96 194.124 346.704 199.038 346.704ZM225.174 357V317.688H238.044V322.212C240.306 319.17 244.44 317.064 249.588 317.064C258.402 317.064 264.174 323.538 264.174 332.274V357H251.304V335.316C251.304 331.416 248.574 328.452 244.674 328.452C240.774 328.452 238.044 331.416 238.044 335.316V357H225.174ZM298.092 317.688H310.962V359.574C310.962 367.686 305.112 372.912 296.064 372.912H275.628V363.084H293.724C296.298 363.084 298.17 360.978 298.17 358.014V353.646C296.064 356.22 292.398 357.624 288.342 357.624C277.032 357.624 269.934 349.902 269.934 337.344C269.934 324.786 277.032 317.064 288.108 317.064C292.71 317.064 295.986 318.546 298.092 320.808V317.688ZM290.604 346.704C295.596 346.704 298.794 343.038 298.794 337.344C298.794 331.65 295.596 327.984 290.604 327.984C285.69 327.984 282.492 331.65 282.492 337.344C282.492 343.038 285.69 346.704 290.604 346.704Z" fill="white"/>
<path d="M414.983 358.593C404.231 358.593 397.483 351.252 397.483 339.314C397.483 327.376 404.231 320.035 414.76 320.035C419.135 320.035 422.249 321.444 424.251 323.594V304.018H436.486V358H424.251V354.812C422.249 357.258 418.838 358.593 414.983 358.593ZM417.133 348.212C421.804 348.212 424.919 344.653 424.919 339.314C424.919 333.975 421.804 330.416 417.133 330.416C412.536 330.416 409.421 333.975 409.421 339.314C409.421 344.653 412.536 348.212 417.133 348.212ZM443.576 304.018H456.33V316.031H443.576V304.018ZM443.798 358V320.628H456.033V358H443.798ZM478.344 358.593C467.592 358.593 460.844 351.252 460.844 339.314C460.844 327.376 467.592 320.035 478.121 320.035C482.496 320.035 485.61 321.444 487.613 323.594V304.018H499.847V358H487.613V354.812C485.61 357.258 482.2 358.593 478.344 358.593ZM480.494 348.212C485.166 348.212 488.28 344.653 488.28 339.314C488.28 333.975 485.166 330.416 480.494 330.416C475.897 330.416 472.782 333.975 472.782 339.314C472.782 344.653 475.897 348.212 480.494 348.212ZM507.159 358V320.628H519.394V324.929C521.545 322.037 525.475 320.035 530.369 320.035C538.748 320.035 544.235 326.189 544.235 334.494V358H532V337.386C532 333.679 529.405 330.861 525.697 330.861C521.989 330.861 519.394 333.679 519.394 337.386V358H507.159ZM547.762 319.145H549.171C551.618 319.145 552.656 317.143 552.656 314.325V305.501H564.817V315.808C564.817 323.52 559.997 328.488 551.395 328.488H547.762V319.145ZM571.218 310.025H583.453V320.628H592.87V330.713H583.453V343.022C583.453 346.432 585.158 347.916 588.347 347.916H592.87V358H586.493C577.298 358 571.218 352.884 571.218 343.615V330.713H564.322V320.628H571.218V310.025ZM638.093 330.713H631.568C627.49 330.713 625.117 333.827 625.117 339.092V358H612.882V320.628H625.117V326.264C627.267 321.814 630.011 320.628 634.163 320.628H638.093V330.713ZM659.06 348.731C662.397 348.731 664.696 347.545 665.363 345.024H677.153C675.596 353.329 668.255 358.593 659.06 358.593C645.639 358.593 639.559 348.138 639.559 339.314C639.559 330.49 644.898 320.035 658.319 320.035C672.482 320.035 677.153 330.713 677.153 338.573C677.153 340.278 677.079 341.316 677.005 342.206H651.275C652.016 346.358 654.611 348.731 659.06 348.731ZM658.319 328.71C654.389 328.71 652.09 330.416 651.275 334.939H665.067C664.844 331.751 662.546 328.71 658.319 328.71ZM697.832 320.035C707.175 320.035 714.442 325.522 714.442 333.975V358H702.281V353.403C701.317 356.517 697.535 358.593 692.716 358.593C685.745 358.593 680.777 353.625 680.777 347.396C680.777 340.056 686.116 335.607 693.976 335.607H699.315C701.243 335.607 702.281 334.272 702.281 332.492C702.281 330.268 700.427 328.71 697.09 328.71C693.012 328.71 691.529 331.232 691.455 333.901H680.777C681.074 326.338 686.784 320.035 697.832 320.035ZM702.281 343.318V343.022H696.052C693.902 343.022 692.345 344.579 692.345 346.803C692.345 348.731 693.976 350.066 696.127 350.066C700.056 350.066 702.281 346.803 702.281 343.318ZM736.423 358.593C725.671 358.593 718.923 351.252 718.923 339.314C718.923 327.376 725.671 320.035 736.2 320.035C740.575 320.035 743.69 321.444 745.692 323.594V304.018H757.926V358H745.692V354.812C743.69 357.258 740.279 358.593 736.423 358.593ZM738.573 348.212C743.245 348.212 746.359 344.653 746.359 339.314C746.359 333.975 743.245 330.416 738.573 330.416C733.976 330.416 730.861 333.975 730.861 339.314C730.861 344.653 733.976 348.212 738.573 348.212Z" fill="white"/>
<defs>
<filter id="filter0_d_2430_1337" x="286" y="191" width="129.723" height="185.5" filterUnits="userSpaceOnUse" color-interpolation-filters="sRGB">
<feFlood flood-opacity="0" result="BackgroundImageFix"/>
<feColorMatrix in="SourceAlpha" type="matrix" values="0 0 0 0 0 0 0 0 0 0 0 0 0 0 0 0 0 0 127 0" result="hardAlpha"/>
<feOffset dy="10"/>
<feGaussianBlur stdDeviation="15"/>
<feComposite in2="hardAlpha" operator="out"/>
<feColorMatrix type="matrix" values="0 0 0 0 0 0 0 0 0 0 0 0 0 0 0 0 0 0 0.25 0"/>
<feBlend mode="normal" in2="BackgroundImageFix" result="effect1_dropShadow_2430_1337"/>
<feBlend mode="normal" in="SourceGraphic" in2="effect1_dropShadow_2430_1337" result="shape"/>
</filter>
</defs>
</svg>
