<svg width="402" height="186" viewBox="0 0 402 186" fill="none" xmlns="http://www.w3.org/2000/svg">
<rect x="1.77828" y="1.86324" width="398.443" height="182.274" rx="26.6651" fill="black" stroke="#D1D1D1" stroke-width="3.55656"/>
<path d="M202.445 70H199.398L208.211 46H211.211L220.023 70H216.977L209.805 49.7969H209.617L202.445 70ZM203.57 60.625H215.852V63.2031H203.57V60.625ZM241.946 53.5H239.04C238.868 52.6641 238.567 51.9297 238.138 51.2969C237.716 50.6641 237.2 50.1328 236.591 49.7031C235.989 49.2656 235.321 48.9375 234.587 48.7187C233.853 48.5 233.087 48.3906 232.29 48.3906C230.837 48.3906 229.521 48.7578 228.341 49.4922C227.169 50.2266 226.235 51.3086 225.54 52.7383C224.853 54.168 224.509 55.9219 224.509 58C224.509 60.0781 224.853 61.832 225.54 63.2617C226.235 64.6914 227.169 65.7734 228.341 66.5078C229.521 67.2422 230.837 67.6094 232.29 67.6094C233.087 67.6094 233.853 67.5 234.587 67.2812C235.321 67.0625 235.989 66.7383 236.591 66.3086C237.2 65.8711 237.716 65.3359 238.138 64.7031C238.567 64.0625 238.868 63.3281 239.04 62.5H241.946C241.728 63.7266 241.329 64.8242 240.751 65.793C240.173 66.7617 239.454 67.5859 238.595 68.2656C237.735 68.9375 236.771 69.4492 235.7 69.8008C234.638 70.1523 233.501 70.3281 232.29 70.3281C230.243 70.3281 228.423 69.8281 226.829 68.8281C225.235 67.8281 223.981 66.4062 223.067 64.5625C222.153 62.7187 221.696 60.5312 221.696 58C221.696 55.4687 222.153 53.2812 223.067 51.4375C223.981 49.5938 225.235 48.1719 226.829 47.1719C228.423 46.1719 230.243 45.6719 232.29 45.6719C233.501 45.6719 234.638 45.8477 235.7 46.1992C236.771 46.5508 237.735 47.0664 238.595 47.7461C239.454 48.418 240.173 49.2383 240.751 50.207C241.329 51.168 241.728 52.2656 241.946 53.5ZM246.643 70V46H261.127V48.5781H249.549V56.6875H260.377V59.2656H249.549V67.4219H261.314V70H246.643ZM279.49 52C279.35 50.8125 278.779 49.8906 277.779 49.2344C276.779 48.5781 275.553 48.25 274.1 48.25C273.037 48.25 272.107 48.4219 271.311 48.7656C270.521 49.1094 269.904 49.582 269.459 50.1836C269.021 50.7852 268.803 51.4687 268.803 52.2344C268.803 52.875 268.955 53.4258 269.26 53.8867C269.572 54.3398 269.971 54.7187 270.455 55.0234C270.939 55.3203 271.447 55.5664 271.979 55.7617C272.51 55.9492 272.998 56.1016 273.443 56.2187L275.881 56.875C276.506 57.0391 277.201 57.2656 277.967 57.5547C278.74 57.8437 279.479 58.2383 280.182 58.7383C280.893 59.2305 281.479 59.8633 281.939 60.6367C282.4 61.4102 282.631 62.3594 282.631 63.4844C282.631 64.7812 282.291 65.9531 281.611 67C280.939 68.0469 279.955 68.8789 278.658 69.4961C277.369 70.1133 275.803 70.4219 273.959 70.4219C272.24 70.4219 270.752 70.1445 269.494 69.5898C268.244 69.0352 267.26 68.2617 266.541 67.2695C265.83 66.2773 265.428 65.125 265.334 63.8125H268.334C268.412 64.7187 268.717 65.4687 269.248 66.0625C269.787 66.6484 270.467 67.0859 271.287 67.375C272.115 67.6562 273.006 67.7969 273.959 67.7969C275.068 67.7969 276.064 67.6172 276.947 67.2578C277.83 66.8906 278.529 66.3828 279.045 65.7344C279.561 65.0781 279.818 64.3125 279.818 63.4375C279.818 62.6406 279.596 61.9922 279.15 61.4922C278.705 60.9922 278.119 60.5859 277.393 60.2734C276.666 59.9609 275.881 59.6875 275.037 59.4531L272.084 58.6094C270.209 58.0703 268.725 57.3008 267.631 56.3008C266.537 55.3008 265.99 53.9922 265.99 52.375C265.99 51.0312 266.354 49.8594 267.08 48.8594C267.814 47.8516 268.799 47.0703 270.033 46.5156C271.275 45.9531 272.662 45.6719 274.193 45.6719C275.74 45.6719 277.115 45.9492 278.318 46.5039C279.521 47.0508 280.475 47.8008 281.178 48.7539C281.889 49.707 282.264 50.7891 282.303 52H279.49ZM300.534 52C300.394 50.8125 299.823 49.8906 298.823 49.2344C297.823 48.5781 296.597 48.25 295.144 48.25C294.081 48.25 293.151 48.4219 292.354 48.7656C291.565 49.1094 290.948 49.582 290.503 50.1836C290.065 50.7852 289.847 51.4687 289.847 52.2344C289.847 52.875 289.999 53.4258 290.304 53.8867C290.616 54.3398 291.015 54.7187 291.499 55.0234C291.983 55.3203 292.491 55.5664 293.022 55.7617C293.554 55.9492 294.042 56.1016 294.487 56.2187L296.925 56.875C297.55 57.0391 298.245 57.2656 299.011 57.5547C299.784 57.8437 300.522 58.2383 301.226 58.7383C301.937 59.2305 302.522 59.8633 302.983 60.6367C303.444 61.4102 303.675 62.3594 303.675 63.4844C303.675 64.7812 303.335 65.9531 302.655 67C301.983 68.0469 300.999 68.8789 299.702 69.4961C298.413 70.1133 296.847 70.4219 295.003 70.4219C293.284 70.4219 291.796 70.1445 290.538 69.5898C289.288 69.0352 288.304 68.2617 287.585 67.2695C286.874 66.2773 286.472 65.125 286.378 63.8125H289.378C289.456 64.7187 289.761 65.4687 290.292 66.0625C290.831 66.6484 291.511 67.0859 292.331 67.375C293.159 67.6562 294.05 67.7969 295.003 67.7969C296.112 67.7969 297.108 67.6172 297.991 67.2578C298.874 66.8906 299.573 66.3828 300.089 65.7344C300.604 65.0781 300.862 64.3125 300.862 63.4375C300.862 62.6406 300.64 61.9922 300.194 61.4922C299.749 60.9922 299.163 60.5859 298.437 60.2734C297.71 59.9609 296.925 59.6875 296.081 59.4531L293.128 58.6094C291.253 58.0703 289.769 57.3008 288.675 56.3008C287.581 55.3008 287.034 53.9922 287.034 52.375C287.034 51.0312 287.397 49.8594 288.124 48.8594C288.858 47.8516 289.843 47.0703 291.077 46.5156C292.319 45.9531 293.706 45.6719 295.237 45.6719C296.784 45.6719 298.159 45.9492 299.362 46.5039C300.565 47.0508 301.519 47.8008 302.222 48.7539C302.933 49.707 303.308 50.7891 303.347 52H300.534ZM309.438 70H306.391L315.203 46H318.203L327.016 70H323.969L316.797 49.7969H316.609L309.438 70ZM310.563 60.625H322.844V63.2031H310.563V60.625ZM330.754 70V46H338.863C340.738 46 342.277 46.3203 343.48 46.9609C344.684 47.5937 345.574 48.4648 346.152 49.5742C346.73 50.6836 347.02 51.9453 347.02 53.3594C347.02 54.7734 346.73 56.0273 346.152 57.1211C345.574 58.2148 344.688 59.0742 343.492 59.6992C342.297 60.3164 340.77 60.625 338.91 60.625H332.348V58H338.816C340.098 58 341.129 57.8125 341.91 57.4375C342.699 57.0625 343.27 56.5312 343.621 55.8437C343.98 55.1484 344.16 54.3203 344.16 53.3594C344.16 52.3984 343.98 51.5586 343.621 50.8398C343.262 50.1211 342.688 49.5664 341.898 49.1758C341.109 48.7773 340.066 48.5781 338.77 48.5781H333.66V70H330.754ZM342.051 59.2187L347.957 70H344.582L338.77 59.2187H342.051Z" fill="white"/>
<path d="M236.617 111.08C236.617 115.206 235.834 118.717 234.27 121.612C232.718 124.506 230.599 126.717 227.914 128.245C225.241 129.76 222.236 130.517 218.897 130.517C215.535 130.517 212.517 129.754 209.844 128.226C207.171 126.699 205.058 124.488 203.506 121.593C201.954 118.698 201.178 115.194 201.178 111.08C201.178 106.953 201.954 103.443 203.506 100.548C205.058 97.6535 207.171 95.4486 209.844 93.9335C212.517 92.4061 215.535 91.6424 218.897 91.6424C222.236 91.6424 225.241 92.4061 227.914 93.9335C230.599 95.4486 232.718 97.6535 234.27 100.548C235.834 103.443 236.617 106.953 236.617 111.08ZM228.505 111.08C228.505 108.407 228.105 106.153 227.304 104.317C226.516 102.482 225.401 101.09 223.96 100.142C222.519 99.1932 220.831 98.719 218.897 98.719C216.964 98.719 215.276 99.1932 213.835 100.142C212.394 101.09 211.273 102.482 210.472 104.317C209.684 106.153 209.29 108.407 209.29 111.08C209.29 113.753 209.684 116.007 210.472 117.842C211.273 119.678 212.394 121.07 213.835 122.018C215.276 122.967 216.964 123.441 218.897 123.441C220.831 123.441 222.519 122.967 223.96 122.018C225.401 121.07 226.516 119.678 227.304 117.842C228.105 116.007 228.505 113.753 228.505 111.08ZM247.405 113.593V130H239.534V101.62H247.035V106.627H247.368C247.996 104.976 249.049 103.671 250.527 102.71C252.005 101.737 253.798 101.25 255.904 101.25C257.875 101.25 259.593 101.681 261.059 102.544C262.525 103.406 263.664 104.638 264.477 106.239C265.29 107.828 265.696 109.725 265.696 111.93V130H257.825V113.334C257.838 111.597 257.394 110.242 256.495 109.269C255.596 108.284 254.358 107.791 252.781 107.791C251.722 107.791 250.786 108.019 249.973 108.475C249.172 108.93 248.544 109.596 248.088 110.47C247.645 111.332 247.417 112.373 247.405 113.593ZM276.909 92.1598V130H269.038V92.1598H276.909ZM280.353 130V101.62H288.224V130H280.353ZM284.307 97.9615C283.137 97.9615 282.133 97.5734 281.295 96.7974C280.47 96.0091 280.057 95.0668 280.057 93.9705C280.057 92.8865 280.47 91.9565 281.295 91.1805C282.133 90.3922 283.137 89.998 284.307 89.998C285.477 89.998 286.475 90.3922 287.3 91.1805C288.138 91.9565 288.557 92.8865 288.557 93.9705C288.557 95.0668 288.138 96.0091 287.3 96.7974C286.475 97.5734 285.477 97.9615 284.307 97.9615ZM299.539 113.593V130H291.667V101.62H299.169V106.627H299.502C300.13 104.976 301.183 103.671 302.661 102.71C304.139 101.737 305.931 101.25 308.038 101.25C310.009 101.25 311.727 101.681 313.193 102.544C314.659 103.406 315.798 104.638 316.611 106.239C317.424 107.828 317.83 109.725 317.83 111.93V130H309.959V113.334C309.972 111.597 309.528 110.242 308.629 109.269C307.73 108.284 306.492 107.791 304.915 107.791C303.856 107.791 302.92 108.019 302.107 108.475C301.306 108.93 300.678 109.596 300.222 110.47C299.779 111.332 299.551 112.373 299.539 113.593ZM334.106 130.554C331.187 130.554 328.674 129.963 326.568 128.781C324.473 127.586 322.86 125.898 321.727 123.718C320.593 121.525 320.027 118.932 320.027 115.939C320.027 113.02 320.593 110.458 321.727 108.253C322.86 106.048 324.455 104.33 326.512 103.098C328.581 101.866 331.008 101.25 333.792 101.25C335.664 101.25 337.407 101.552 339.021 102.156C340.647 102.747 342.063 103.64 343.27 104.835C344.49 106.03 345.438 107.532 346.116 109.343C346.793 111.141 347.132 113.248 347.132 115.662V117.824H323.168V112.946H339.723C339.723 111.813 339.477 110.809 338.984 109.934C338.491 109.06 337.807 108.376 336.933 107.883C336.071 107.378 335.067 107.126 333.921 107.126C332.726 107.126 331.667 107.403 330.743 107.957C329.832 108.499 329.117 109.232 328.6 110.156C328.083 111.068 327.818 112.084 327.805 113.205V117.842C327.805 119.247 328.064 120.46 328.581 121.482C329.111 122.505 329.856 123.293 330.817 123.847C331.778 124.402 332.917 124.679 334.235 124.679C335.11 124.679 335.911 124.556 336.637 124.309C337.364 124.063 337.986 123.693 338.503 123.201C339.021 122.708 339.415 122.104 339.686 121.39L346.966 121.87C346.596 123.619 345.839 125.147 344.693 126.452C343.56 127.746 342.094 128.756 340.296 129.483C338.51 130.197 336.446 130.554 334.106 130.554Z" fill="white"/>
<path d="M130.055 97.5833V125.083C130.055 127.514 129.089 129.846 127.37 131.565C125.651 133.284 123.319 134.25 120.888 134.25H70.4714C68.0402 134.25 65.7086 133.284 63.9895 131.565C62.2705 129.846 61.3047 127.514 61.3047 125.083V74.6667C61.3047 72.2355 62.2705 69.9039 63.9895 68.1849C65.7086 66.4658 68.0402 65.5 70.4714 65.5H97.9714" stroke="white" stroke-width="9.16667" stroke-linecap="round" stroke-linejoin="round"/>
<path d="M116.305 51.75H143.805V79.25" stroke="white" stroke-width="9.16667" stroke-linecap="round" stroke-linejoin="round"/>
<path d="M93.3867 102.167L143.803 51.75" stroke="white" stroke-width="9.16667" stroke-linecap="round" stroke-linejoin="round"/>
</svg>
